<?xml version="1.0" encoding="utf-8"?>
<!-- Generator: Adobe Illustrator 23.0.6, SVG Export Plug-In . SVG Version: 6.00 Build 0)  -->
<svg version="1.1" id="Layer_1" xmlns="http://www.w3.org/2000/svg" xmlns:xlink="http://www.w3.org/1999/xlink" x="0px" y="0px"
	 viewBox="0 0 148.7 137.7" style="enable-background:new 0 0 148.7 137.7;" xml:space="preserve">
<style type="text/css">
	.st0{fill:none;}
	.st1{fill-rule:evenodd;clip-rule:evenodd;fill:#E17100;}
	.st2{fill-rule:evenodd;clip-rule:evenodd;fill:#F9A967;}
	.st3{fill-rule:evenodd;clip-rule:evenodd;fill:#FCA96B;}
	.st4{fill-rule:evenodd;clip-rule:evenodd;fill:#68BE7C;}
	.st5{fill:#FFFFFF;}
</style>
<title>environment</title>
<g>
	<path class="st0" d="M36.2,19.2"/>
	<path class="st1" d="M63.2,23.6l-0.3-1.1c1-1.1,2.6-1.9,4.6-2.4c1.2,4.4,2.5,8.7,3.9,13l-5.7-10.8C65,22.7,64.1,23.1,63.2,23.6z
		 M84.3,45.1l-2.4,2.8c-1.3-0.2-2.6-0.5-3.9-1c0.4-0.8,0.8-1.7,1.2-2.6c0.8,0.1,1.6,0.2,2.5,0.4l4.1-4.5c-0.6,1.5-1.4,3.2-2.1,4.7
		C84,44.9,84.1,45,84.3,45.1L84.3,45.1z M78.5,44.2l-2.3,2.5c-3.9-0.8-7-0.3-9.9,1.2L55.9,35.4c-0.6-0.7-0.9-1.5-0.9-2.2
		c0-1.8,1.6-3.4,3.4-4.7c-0.1,0.4-0.2,0.8-0.2,1.2c0,0.8,0.3,1.7,1,2.5L70.7,46C73.1,44.7,75.6,44.1,78.5,44.2L78.5,44.2z"/>
	<path class="st1" d="M80.3,58.8l-2-9.3c8.7,1.6,22.6,19.3,27.1,27.3c2.3,4.1,4.3,8.6,6,13.7c3.3,12.2,0.1,23.7-13.1,26.3
		c-8.3,1.7-23.8,1.8-32.5,1.3c-9.4-0.5-23.9-0.5-27.7-10.1C31.8,92.5,43,74,53.3,62.6c1.3-1.5,2.7-2.9,4.2-4.2
		c3.7-3.3,7.7-7.2,12.5-8.8l-4.6,8.6l6.7-8.9h3.5L80.3,58.8L80.3,58.8z"/>
	<path class="st2" d="M80.3,58.8l-2-9.3c19.6,7.2,53.2,58.9,14.7,59.3c-65.4,0.7-52.8-8-35.5-50.4c3.7-3.3,7.7-7.2,12.5-8.8
		l-4.6,8.6l6.7-8.9h3.5L80.3,58.8L80.3,58.8z"/>
	<path class="st1" d="M80.3,58.8l-0.9-4c15.3,11.6,34.8,43.8,20.1,53.3c-1.9,0.5-4.1,0.5-6.6,0.8c-66.4,6.5-53.5-4.3-35.5-50.4
		c2.4-2.1,5-4.5,7.8-6.4l-4.4,8.1l6.7-8.9h1.5l-3.8,7l5.3-7h0.5l4.7,9.5l-2-9.3c1.2,0.5,2.5,1.2,3.9,2.1L80.3,58.8L80.3,58.8z"/>
	<circle class="st3" cx="73.9" cy="84.9" r="19"/>
	<path class="st4" d="M36.2,19.2"/>
	<path class="st5" d="M65.8,87.7V85l1.9-0.9v-1.4l-1.9,0.9V81l1.9-0.9v-4.4h5v2.1l2.7-1.2v2.7l-2.7,1.2v1.4l2.7-1.2v2.7l-2.7,1.2
		v5.3c0.8,0,1.4-0.1,2-0.4c0.5-0.3,1-0.6,1.3-1.1c0.3-0.5,0.5-1,0.7-1.6c0.1-0.6,0.2-1.3,0.2-2h5.1c0,1.4-0.2,2.7-0.6,3.8
		c-0.4,1.1-0.9,2.1-1.7,2.9c-0.8,0.8-1.7,1.4-2.9,1.9c-1.2,0.4-2.5,0.7-4.1,0.7h-5v-7.2L65.8,87.7L65.8,87.7z"/>
</g>
</svg>
