<?xml version="1.0" encoding="utf-8"?>
<!-- Generator: Adobe Illustrator 23.0.6, SVG Export Plug-In . SVG Version: 6.00 Build 0)  -->
<svg version="1.1"
	 id="Layer_1" text-rendering="geometricPrecision" shape-rendering="geometricPrecision" image-rendering="optimizeQuality"
	 xmlns="http://www.w3.org/2000/svg" xmlns:xlink="http://www.w3.org/1999/xlink" x="0px" y="0px" viewBox="0 0 512 497.4"
	 style="enable-background:new 0 0 512 497.4;" xml:space="preserve">
<style type="text/css">
	.st0{fill-rule:evenodd;clip-rule:evenodd;fill:#E17100;}
</style>
<path class="st0" d="M261.1,122.2c32.8,0,62.7,12.6,85.1,33.2l16.4-9.3l-9.3,16.5C374.3,184.9,387,215,387,248
	c0,32.6-12.4,62.3-32.7,84.7l9.2,16.2l-16.2-9.1c-22.5,21.1-52.8,34.1-86.2,34.1c-33,0-63-12.7-85.4-33.5l-16.9,9.6l9.5-17
	c-20.5-22.4-33-52.2-33-85c0-33.4,13-63.7,34.2-86.2l-9-15.7l15.9,8.9C198.7,134.6,228.5,122.2,261.1,122.2L261.1,122.2z
	 M235.3,289.7l-38,21.6l22.2-39.5l11.7,3.2l-81.6-22.4c1.2,29,13.4,55.1,32.6,74.2c18.8,18.8,44.3,30.9,72.5,32.5L235.3,289.7
	L235.3,289.7z M219.8,221.7l-21.3-37.5l37.5,21.1l18.8-68.6c-28.3,1.6-53.7,13.7-72.5,32.5c-18.7,18.7-30.8,44-32.5,72.1l82.6-23.1
	L219.8,221.7L219.8,221.7z M286,206l38.5-21.9l-21.4,38l-13.7-3.8l83,22.8c-1.7-28.1-13.8-53.3-32.4-72c-19-19-44.8-31.2-73.4-32.5
	L286,206z M303.1,272.1l21.9,38.5l-38.9-21.9l-19.4,70.7c28.6-1.4,54.4-13.6,73.4-32.5c19.2-19.2,31.4-45.3,32.6-74.3L303.1,272.1
	L303.1,272.1z M260.4,247l0.3,0.3l-24.5,26.2L139.7,247L260.4,247L260.4,247z M261.8,246.9l-0.3-0.3l7.7-8.2l-8.9,8.5l-26.2-24.5
	l26.5-96.5v120.7l8.8-8.5l16.7-17.8l96.5,26.5L261.8,246.9L261.8,246.9z M261,249.1l26.2,24.5l-23.6,85.9l-2.9,10.6V249.4L261,249.1
	L261,249.1z"/>
</svg>
