<?xml version="1.0" encoding="utf-8"?>
<!-- Generator: Adobe Illustrator 23.0.6, SVG Export Plug-In . SVG Version: 6.00 Build 0)  -->
<svg version="1.1" id="Layer_1" xmlns="http://www.w3.org/2000/svg" xmlns:xlink="http://www.w3.org/1999/xlink" x="0px" y="0px"
	 viewBox="0 0 148.7 137.7" style="enable-background:new 0 0 148.7 137.7;" xml:space="preserve">
<style type="text/css">
	.st0{fill:#E17100;}
</style>
<title>environment</title>
<path class="st0" d="M34.7,67L34.7,67l0-16.9v-0.1c-0.2-1.1-0.6-1.8-1.3-2.2c-0.9-0.6-2.3-0.8-4-0.8h0v0H17
	c-1.5,0.1-2.7,0.4-3.3,1.2c-0.7,0.8-0.9,2.3-0.6,4.5c0,0,0,0.1,0,0.1l2.4,29.5v0.1c0.3,3.1,1,5,1.9,6.1c0.7,0.9,1.8,1.1,3,0.9
	c0.1,0,0.2,0,0.3,0v0h9.1c0.1,0,0.1,0,0.2,0c1.6,0,2.7-0.4,3.4-1.4c0.8-1.1,1.2-2.7,1.3-4.9h0V67z M23.8,80.6c-1.2,0-2.2-1-2.2-2.2
	s1-2.2,2.2-2.2s2.2,1,2.2,2.2S25,80.6,23.8,80.6z"/>
<path class="st0" d="M97.2,89.1c0.5,1.1,0.5,2.2,0.2,3.1c-0.3,0.8-0.8,1.5-1.5,2.1c-0.7,0.6-1.6,1-2.5,1.1c-1,0.2-2.2,0-3.1-0.5
	L83,81.1c-0.4-0.8-1.4-1.1-2.2-0.7c-0.8,0.4-1.1,1.4-0.7,2.2l7,13.3c-1.2,1.2-2.4,2-3.6,2.3c-1.3,0.3-2.6,0.2-3.9-0.3l-7.8-12.2
	c-0.5-0.8-1.5-1-2.2-0.5c-0.8,0.5-1,1.5-0.5,2.2L76.6,99c-1.3,1.4-2.6,2.2-4,2.5c-1.5,0.3-3.3,0-5.2-0.9L62.3,91
	c-0.4-0.8-1.4-1.1-2.2-0.7c-0.8,0.4-1.1,1.4-0.7,2.2l4.7,8.8c-0.4,0.3-0.9,0.6-1.4,0.8c-0.8,0.3-1.5,0.5-2.4,0.4
	c-2.2-0.1-3.7-0.7-4.8-1.7c-1.2-1-2.1-2.7-3.2-4.5l-7.3-12.7c-0.3-0.5-0.8-0.8-1.4-0.8H38l0-12.2v-19H48c0.4,0,0.7-0.1,1-0.3
	c2.4-1.6,4.6-2.9,6.9-3.6c1.5-0.5,3.2-0.7,5-0.7l-8.7,10.4c-0.3,0.3-0.4,0.8-0.4,1.2h0c0.1,1.7,0.7,3.1,1.7,4.3
	c0.8,1.1,2,1.8,3.2,2.3c1.2,0.5,2.6,0.6,4,0.5c2.1-0.2,4.4-1,6.4-2.6l0,0l2.8-2.3c0.6-0.5,1.3-1.1,2-1.8c1.2-1.1,2.3-2.1,3.4-2.8
	c1.5-0.9,3.1-0.9,4.9,2.1l16,28.8c0.1,0.3,0.2,0.6,0.5,0.9L97.2,89.1z"/>
<path class="st0" d="M98.8,46.4l5.4,3.6c-0.1,0.5-0.1,1-0.1,1.5c0,0,0,0.1,0,0.1v33.5h-5.3L82.9,56.7l0,0c-3.1-5.2-6.2-5.1-9.3-3.2
	c-1.4,0.8-2.6,2-3.9,3.2c-0.6,0.5-1.2,1.1-1.9,1.7L65,60.5c-1.5,1.2-3.1,1.8-4.6,1.9c-0.9,0.1-1.8,0-2.6-0.3
	c-0.7-0.3-1.4-0.7-1.8-1.3c-0.4-0.5-0.7-1.2-0.9-1.9l10-12c0.2-0.1,0.3-0.3,0.5-0.5l3.6-4.3c0.7-0.7,1.5-1.2,2.4-1.7
	c1-0.5,2-0.9,3.1-1.2c1.8-0.5,3.8-0.7,5.7-0.6c2.2,0,4.3,0.4,6.2,0.8c3.4,0.9,6.6,3.1,9.7,5.3C97.1,45.3,98,45.9,98.8,46.4
	C98.7,46.4,98.7,46.4,98.8,46.4z"/>
<path class="st0" d="M128.3,48.5c-1-0.8-2.7-1.1-4.8-1.1c0,0-0.1,0-0.2,0h-11.2v0c-1.7,0-3,0.3-3.7,1c-0.3,0.3-0.6,0.7-0.7,1.1
	c0,0.2-0.1,0.4-0.2,0.5c-0.1,0.4-0.1,0.9-0.1,1.4c0,0.1,0,0.1,0,0.2v34.7c0.4,1.1,1,1.9,1.6,2.4c0.6,0.5,1.3,0.7,2.2,0.7
	c0.1,0,0.1,0,0.2,0h10c1.5,0.1,2.7-0.3,3.4-1.2c0.8-1,1.3-2.5,1.5-4.7v0l3-31.3c0-0.1,0-0.1,0-0.2C129.6,50.3,129.2,49.2,128.3,48.5
	z M118.2,80.6c-1.2,0-2.2-1-2.2-2.2s1-2.2,2.2-2.2s2.2,1,2.2,2.2S119.4,80.6,118.2,80.6z"/>
</svg>
