<?xml version="1.0" encoding="utf-8"?>
<!-- Generator: Adobe Illustrator 23.0.6, SVG Export Plug-In . SVG Version: 6.00 Build 0)  -->
<svg version="1.1"
	 id="Layer_1" shape-rendering="geometricPrecision" text-rendering="geometricPrecision" image-rendering="optimizeQuality"
	 xmlns="http://www.w3.org/2000/svg" xmlns:xlink="http://www.w3.org/1999/xlink" x="0px" y="0px" viewBox="0 0 512 497.4"
	 style="enable-background:new 0 0 512 497.4;" xml:space="preserve">
<style type="text/css">
	.st0{fill:#E17100;}
</style>
<path class="st0" d="M366.8,327.6c-32.1,19.8-64.2,39.5-96.3,59.3c-9.1,5.6-18.5,7.4-29.1,4.3c-22-6.3-44.3-12-66.4-17.9
	c-3.4-0.9-6.8-2.2-10.2,0.7c-8.9-15.8-17.7-31.3-26.6-47.1c1.9-1.1,3.6-2.1,5.3-3.1c10.5-6,21-12,31.5-18.1
	c9.1-5.3,18.4-5.9,28.3-2.3c12.9,4.6,25.9,8.8,39,12.9c4.3,1.4,8.9,2,13.3,3.2c7.2,2,10.1,10.5,5.6,16.1c-3.2,4-7.6,3.8-12,2.9
	c-5.7-1.2-11.3-2.8-16.9-4.3c-5.5-1.5-11-3.1-16.5-4.6c-3.6-0.9-6.4,0.6-7.3,3.8c-0.8,2.9,0.8,5.8,4.3,6.7c14,3.6,28,7.4,42.2,10.5
	c10.9,2.3,21.2,0.2,30.9-5.5c18.6-11.1,37.4-21.9,56.3-32.7c5.8-3.3,11.9-5.9,18.7-5.9c5.8,0,9.7,2.6,11.1,7.3
	C373.7,319.4,371.8,324.5,366.8,327.6z"/>
<path class="st0" d="M164.2,395.3c-3.6-6.5-7.3-12.9-10.9-19.4c-10.3-18.2-20.6-36.3-30.8-54.5c-1.7-2.9-3.6-5.3-8.3-5.5
	c-0.7,0.3-2.4,0.6-3.9,1.4c-4.5,2.4-9,5-13.4,7.6c-4.7,2.8-5.9,6.8-3.2,11.6c14.2,25.1,28.4,50.2,42.6,75.3
	c2.7,4.7,6.8,5.9,11.6,3.3c4.3-2.3,8.6-4.8,12.8-7.2C166.1,404.8,167.3,400.8,164.2,395.3z M112.2,341.8c-2.9-0.1-5.1-2.4-5.1-5.3
	c0.1-2.9,2.5-5.2,5.3-5.2c2.8,0.1,5.2,2.6,5.1,5.4C117.5,339.5,115.1,341.8,112.2,341.8z"/>
<path class="st0" d="M221.6,176.5c-3.6,6.5-7.1,12.9-10.6,19.2c-3.8,7-7.7,14-11.5,21c-1,1.9-1.6,4.1-2.6,6.6
	c-0.4,0-1.4,0.1-2.4,0.1c-15.2,0-30.4,0-45.5,0c-5.9,0-8.7-3.9-7.3-9.6c8.6-32.9,46.7-51.6,78.2-38.4
	C220.5,175.8,220.9,176.1,221.6,176.5z"/>
<path class="st0" d="M413.4,223.4c-16.4,0.1-32.9,0.1-48.8,0.1c-1-2.6-1.6-4.6-2.6-6.5c-6.7-12.4-13.6-24.8-20.4-37.2
	c-0.6-1.1-1.1-2.2-1.8-3.5c12.8-5.4,25.8-6.7,38.9-2.8c21,6.1,34.7,19.9,41,40.8C421.1,219.1,418.3,223.4,413.4,223.4z"/>
<path class="st0" d="M227.6,134.8c0.1,16.3-13,29.5-29.2,29.7c-16.3,0.1-29.8-13.2-29.9-29.5c0-16.2,13.1-29.4,29.3-29.6
	C214.3,105.2,227.5,118.3,227.6,134.8z"/>
<path class="st0" d="M310.3,110.8c0,16.3-13.5,29.7-29.7,29.6c-16.2-0.1-29.3-13.3-29.3-29.6c0-16.4,13-29.4,29.3-29.5
	C296.9,81.2,310.3,94.4,310.3,110.8z"/>
<path class="st0" d="M392.8,135.3c-0.2,16.2-13.5,29.3-29.7,29.2c-16.3-0.1-29.5-13.6-29.4-30c0.2-16.2,13.5-29.2,29.8-29.1
	C380,105.5,393,118.7,392.8,135.3z"/>
<path class="st0" d="M326.3,169H236c3.7-9.2,23.6-20.3,39-21.5C295.4,145.9,312.3,153,326.3,169z"/>
<path class="st0" d="M299.4,227.2c-6.1,22.3-12.2,44.4-18.3,66.5c-0.2,0-0.5,0-0.7,0c-6.1-22-12.1-44.1-18.3-66.6H299.4z"/>
<path class="st0" d="M268.2,290.9c-0.2,0.1-0.4,0.3-0.6,0.4c-17.5-21.2-34.9-42.4-52.8-64h35.8C256.5,248.3,262.3,269.6,268.2,290.9
	z"/>
<path class="st0" d="M346.7,227c-18,21.8-35.5,43-53,64.2c-0.2-0.1-0.4-0.2-0.6-0.3c2-7.3,4.1-14.6,6.1-21.9
	c3.6-13,7.2-25.9,10.6-38.9c0.6-2.5,1.7-3.2,4.2-3.2C324.6,227.1,335.2,227,346.7,227z"/>
<path class="st0" d="M245.4,215.9h-32.9c5.5-10.1,10.9-19.8,16.5-29.9C234.5,196.2,239.8,205.8,245.4,215.9z"/>
<path class="st0" d="M271.3,180.3c-5.5,10-10.8,19.7-16.5,30c-5.6-10.2-11-19.9-16.5-30H271.3z"/>
<path class="st0" d="M323,180.4c-5.5,10-10.8,19.7-16.4,29.9c-5.6-10.2-10.9-19.8-16.4-29.9H323z"/>
<path class="st0" d="M297.1,215.8h-32.8c5.4-9.9,10.7-19.5,16.4-29.9C286.3,196.1,291.6,205.8,297.1,215.8z"/>
<path class="st0" d="M348.9,215.9H316c5.5-10,10.8-19.7,16.5-29.9C338.1,196.2,343.4,205.9,348.9,215.9z"/>
</svg>
