<?xml version="1.0" encoding="utf-8"?>
<!-- Generator: Adobe Illustrator 24.2.0, SVG Export Plug-In . SVG Version: 6.00 Build 0)  -->
<svg version="1.1" id="Layer_1" xmlns="http://www.w3.org/2000/svg" xmlns:xlink="http://www.w3.org/1999/xlink" x="0px" y="0px"
	 viewBox="0 0 841.89 595.28" style="enable-background:new 0 0 841.89 595.28;" xml:space="preserve">
<style type="text/css">
	.st0{fill:#FFFFFF;}
	.st1{fill:none;stroke:#0C2342;stroke-width:3;stroke-miterlimit:10;}
	.st2{fill:url(#SVGID_1_);}
	.st3{fill:#0C2342;}
	.st4{fill:none;}
	.st5{font-family:'Poppins-Bold';}
	.st6{font-size:14px;}
	.st7{fill:none;stroke:#0C2342;stroke-width:2;stroke-miterlimit:10;}
	.st8{fill:#F99E42;}
	.st9{fill:#FAA441;}
	.st10{fill:#FAA95B;}
	.st11{fill:#F99F46;}
	.st12{fill:#F89B3C;}
	.st13{fill:#F9A03C;}
	.st14{fill:#FAA338;}
	.st15{fill:#231F20;}
	.st16{fill:#FEF9FB;}
	.st17{opacity:0;fill:#FAA335;}
	.st18{clip-path:url(#SVGID_5_);}
	.st19{clip-path:url(#SVGID_7_);}
	.st20{clip-path:url(#SVGID_9_);fill:#0C2342;}
</style>
<path class="st0" d="M420.94,161.68c-75.09,0-135.97,60.87-135.97,135.96s60.88,135.97,135.97,135.97
	c75.1,0,135.98-60.88,135.98-135.97S496.04,161.68,420.94,161.68z M500.19,333.75l-0.01,0.01c-13.71,30.06-44.04,50.95-79.24,50.95
	c-35.19,0-65.52-20.89-79.23-50.95l-0.01-0.01c-0.11-0.23-0.21-0.45-0.31-0.68H500.5C500.4,333.3,500.3,333.52,500.19,333.75z"/>
<path class="st1" d="M420.94,166.51c-72.42,0-131.13,58.71-131.13,131.13c0,12.52,1.76,24.64,5.04,36.11
	c15.68,54.86,66.19,95.02,126.09,95.02s110.42-40.16,126.1-95.02c3.28-11.47,5.04-23.59,5.04-36.11
	C552.08,225.22,493.37,166.51,420.94,166.51z M502.02,333.76c-13.84,31-44.93,52.62-81.08,52.62c-36.14,0-67.23-21.62-81.07-52.62
	v-0.01h162.15V333.76z"/>
<path class="st1" d="M420.94,166.51c-72.42,0-131.13,58.71-131.13,131.13c0,12.52,1.76,24.64,5.04,36.11
	c15.68,54.86,66.19,95.02,126.09,95.02s110.42-40.16,126.1-95.02c3.28-11.47,5.04-23.59,5.04-36.11
	C552.08,225.22,493.37,166.51,420.94,166.51z M502.02,333.76c-13.84,31-44.93,52.62-81.08,52.62c-36.14,0-67.23-21.62-81.07-52.62
	v-0.01h162.15V333.76z"/>
<linearGradient id="SVGID_1_" gradientUnits="userSpaceOnUse" x1="420.7152" y1="209.328" x2="420.7152" y2="386.3302">
	<stop  offset="0.0569" style="stop-color:#FCDB71"/>
	<stop  offset="0.796" style="stop-color:#E98F2A"/>
</linearGradient>
<circle class="st2" cx="420.72" cy="297.83" r="88.5"/>
<path class="st3" d="M502.02,333.75c-13.83,31.01-44.93,52.63-81.08,52.63c-36.14,0-67.9-21.61-81.73-52.62L502.02,333.75z"/>
<g>
	<path id="SVGID_x5F_2_x5F_" class="st4" d="M522.96,300.35c0,56.34-45.67,102.02-102.02,102.02s-102.02-45.67-102.02-102.02
		s45.67-102.02,102.02-102.02S522.96,244.01,522.96,300.35z"/>
	<text>	<textPath  xlink:href="#SVGID_x5F_2_x5F_" startOffset="-69.2953%">
<tspan  style="fill:#142045; font-family:'AktivGrotesk-Bold'; font-size:24px;">A B M TOURS AND SAFARIS LTD.                                                                                                  </tspan>	</textPath>
</text>
</g>
<g>
	<path id="SVGID_x5F_3_x5F_" class="st4" d="M522.97,301.35c0,56.34-45.67,102.02-102.02,102.02s-102.02-45.67-102.02-102.02
		s45.67-102.02,102.02-102.02S522.97,245.01,522.97,301.35z"/>
	<text>	<textPath  xlink:href="#SVGID_x5F_3_x5F_" startOffset="-335.319%">
<tspan  style="fill:#142045; font-size:16px;">       EXPLORE THE UNKNOWN WITH US                                                                                                          </tspan>	</textPath>
</text>
</g>
<text transform="matrix(1 0 0 1 388.6894 355.667)" class="st0 st5 st6">EST . 2021</text>
<path class="st7" d="M509.68,297.93c0,12.76-2.73,24.88-7.66,35.83H339.87c-4.93-10.94-7.66-23.07-7.66-35.83
	c0-48.62,39.73-88.03,88.73-88.03C469.95,209.9,509.68,249.3,509.68,297.93z"/>
<g>
</g>
<line class="st1" x1="294.85" y1="333.75" x2="547.04" y2="333.75"/>
<path class="st8" d="M446.87,314.9c-0.05,0.12-0.16,0.17-0.24,0.1c-0.13-0.11,0.06-0.15,0.1-0.22
	C446.77,314.82,446.82,314.86,446.87,314.9z"/>
<path class="st9" d="M446.15,315.55c-0.04-0.05-0.07-0.1-0.11-0.15c0.02-0.01,0.04-0.02,0.07-0.03c0.01,0.06,0.02,0.12,0.03,0.18
	C446.13,315.55,446.15,315.55,446.15,315.55z"/>
<path class="st10" d="M393.1,308.87c-1.45-0.05-3.39,2.08-3.16,3.45C390.93,311.13,391.48,309.61,393.1,308.87z"/>
<path class="st11" d="M396.35,315.73c0.44-1.53,0.21-3.01-0.23-4.49C396.38,312.73,396.37,314.23,396.35,315.73z"/>
<path class="st12" d="M393.77,315.69c-0.32-0.37-0.21-1.17-1.04-1.01c-0.17-0.72-0.66-0.19-1.03-0.21c0.64,0.44,1.28,0.89,1.92,1.33
	C393.67,315.77,393.72,315.73,393.77,315.69z"/>
<path class="st13" d="M400.25,312.45c-0.2,0.05-0.47,0.06-0.4,0.35c0.05,0.22,0.23,0.48,0.49,0.4c0.16-0.05,0.36-0.29,0.37-0.45
	C400.73,312.52,400.48,312.46,400.25,312.45z"/>
<path class="st14" d="M394.36,316.47c0.52,0.18,0.99,0.76,1.71,0.06c-0.68,0.23-1.17-0.18-1.72-0.06L394.36,316.47z"/>
<path class="st15" d="M393.62,315.81c0.05,0.12,0.16,0.17,0.24,0.1c0.13-0.11-0.06-0.15-0.1-0.22
	C393.72,315.73,393.67,315.77,393.62,315.81z"/>
<path class="st15" d="M394.34,316.47c0.04-0.05,0.07-0.1,0.11-0.15c-0.02-0.01-0.04-0.02-0.07-0.03c-0.01,0.06-0.02,0.12-0.03,0.18
	C394.36,316.47,394.34,316.47,394.34,316.47z"/>
<circle class="st16" cx="458.03" cy="252.52" r="16.21"/>
<path class="st16" d="M472.11,297.64c0,0,2.52,1.32,4.75,0s3.96-2.02,5.78-1.56c1.82,0.47,6.48,1,6.48,1s-1.86-2.74,2.33-2.45
	c4.19,0.29,8.85-0.21,9.32,1.79c0.47,1.99,1.99,1.81,1.99,1.81s1.99-0.28,2.43,0.65c0.44,0.93-10.25,1.54-12.58,1.47
	c-2.33-0.07-18.87,0.08-20.5,0.01C470.48,300.28,469.54,297.06,472.11,297.64z"/>
<path class="st16" d="M469.67,292.9c0,0,1.59,0.51,3.01,0s2.51-0.79,3.66-0.61s4.1,0.39,4.1,0.39s-1.18-1.06,1.48-0.95
	c2.66,0.11,5.61-0.08,5.9,0.7c0.3,0.78,1.26,0.7,1.26,0.7s1.26-0.11,1.54,0.25c0.28,0.36-6.49,0.6-7.97,0.57
	c-1.48-0.03-11.95,0.03-12.98,0C468.64,293.93,468.05,292.67,469.67,292.9z"/>
<path class="st16" d="M437.32,294.58c0,0,1.59,1.07,3.01,0c1.42-1.07,2.51-1.64,3.66-1.26s4.1,0.81,4.1,0.81s-1.18-2.22,1.48-1.99
	c2.66,0.23,5.61-0.17,5.9,1.45c0.3,1.62,1.26,1.47,1.26,1.47s1.26-0.23,1.54,0.53s-6.49,1.25-7.97,1.19s-11.95,0.07-12.98,0
	C436.28,296.72,435.69,294.11,437.32,294.58z"/>
<path class="st16" d="M345.45,260.12c0,0,2.92,1.32,5.52,0s4.59-2.02,6.7-1.56c2.11,0.47,7.52,1,7.52,1s-2.16-2.74,2.7-2.45
	c4.87,0.29,10.27-0.21,10.82,1.79s2.31,1.81,2.31,1.81s2.31-0.28,2.83,0.65c0.51,0.93-11.9,1.54-14.6,1.47
	c-2.7-0.07-21.9,0.08-23.79,0.01C343.55,262.76,342.47,259.53,345.45,260.12z"/>
<path class="st16" d="M426.88,254.57c0,0-2.18,1.46-4.27,0.26c-2.09-1.2-3.68-1.8-5.29-1.24c-1.61,0.56-5.76,1.35-5.76,1.35
	s1.51-2.83-2.24-2.32c-3.75,0.51-7.97,0.28-8.27,2.29c-0.3,2.02-1.68,1.91-1.68,1.91s-1.81-0.17-2.15,0.78
	c-0.34,0.95,9.31,0.98,11.4,0.78c2.09-0.2,16.97-0.95,18.43-1.11C428.5,257.11,429.15,253.85,426.88,254.57z"/>
<path class="st3" d="M376.87,247.78c-1.02,0.87-2.21,1.41-3.48,1.84c-0.56,0.18-1.1,0.58-1.49,1.03c-0.55,0.62-0.25,1.29,0.56,1.47
	c0.36,0.08,0.72,0.11,1.09,0.17c0,0.07,0.01,0.14,0.01,0.21c-0.44,0.04-0.88,0.09-1.32,0.13c-0.5,0.05-1.01,0.02-1.5,0.14
	c-1.13,0.26-2.08,0.06-2.91-0.79c-0.4-0.42-0.88-0.76-1.29-1.1c0.2-0.09,0.48-0.22,0.75-0.35c0-0.1,0-0.2,0-0.3
	c-0.81-0.2-1.63-0.4-2.44-0.6c-0.6-0.14-1.2-0.27-1.5-1.14c0.38,0.14,0.6,0.27,0.84,0.31c0.82,0.14,1.64,0.32,2.47,0.36
	c0.68,0.03,1.24,0.09,1.65,0.73c0.37,0.58,0.98,0.61,1.46,0.12c0.75-0.76,1.65-1.19,2.7-1.26c1.39-0.1,2.69-0.46,3.96-1.03
	c0.13-0.06,0.3-0.05,0.45-0.07C376.87,247.69,376.87,247.74,376.87,247.78z"/>
<path class="st3" d="M407.74,225.13c0.33-0.13,0.85-0.33,1.56-0.61c-1.5-1.13-3.03-1.2-4.49-1.46c-1.11-0.2-2-0.66-2.56-1.84
	c0.31,0.03,0.53-0.01,0.69,0.07c1.81,0.87,3.73,1.04,5.69,0.94c0.82-0.04,1.38,0.23,1.84,0.94c0.87,1.36,1.68,1.42,2.79,0.32
	c1.17-1.15,2.59-1.91,4.19-1.94c2.59-0.05,4.91-0.95,7.22-1.94c0.2-0.09,0.42-0.14,0.67-0.14c-1.2,1.46-2.78,2.31-4.52,2.96
	c-1.12,0.41-2.2,0.93-3.27,1.48c-0.34,0.17-0.6,0.53-0.82,0.86c-0.77,1.14-0.36,2.2,0.98,2.5c0.65,0.15,1.32,0.2,2.2,0.32
	c-0.71,0.69-1.47,0.63-2.19,0.69c-1.15,0.1-2.31,0.11-3.45,0.29c-1.82,0.28-3.27-0.31-4.53-1.6
	C409.11,226.29,408.37,225.7,407.74,225.13z"/>
<path class="st3" d="M422.11,238.01c-0.77,0.38-1.54,0.77-2.32,1.14c-0.56,0.27-1.15,0.48-1.7,0.77c-0.24,0.13-0.43,0.38-0.58,0.61
	c-0.41,0.64-0.15,1.26,0.6,1.42c0.36,0.08,0.74,0.12,1.2,0.19c-0.53,0.45-1.06,0.37-1.6,0.37c-0.39-0.01-0.79,0.01-1.16,0.12
	c-1.06,0.34-2.19,0.02-3-0.85c-0.35-0.37-0.77-0.67-1.13-0.97c0.19-0.08,0.47-0.21,0.76-0.34c0-0.07,0-0.15,0-0.22
	c-0.41-0.14-0.82-0.31-1.24-0.42c-0.46-0.12-0.94-0.17-1.4-0.28c-0.53-0.13-0.96-0.4-1.22-1.04c0.21,0.07,0.33,0.1,0.44,0.15
	c0.96,0.45,1.98,0.53,3.01,0.48c0.54-0.03,0.93,0.15,1.24,0.63c0.47,0.73,0.95,0.76,1.56,0.2c0.65-0.59,1.38-1.03,2.26-1.1
	c1.45-0.12,2.85-0.42,4.17-1.08C422.04,237.86,422.08,237.93,422.11,238.01z"/>
<path class="st3" d="M383.13,237.97c-0.52-2.5,0.99-5.67,3.08-6.81c0.22-0.12,0.45-0.21,0.66-0.34c0.48-0.3,1.08-0.58,0.14-1.34
	c1.4-0.06,2.44,0.23,3.39,0.81c0.92,0.56,1.74,1.28,2.68,1.79c0.93,0.51,1.96,0.85,2.99,1.48c-0.73,0.11-1.46,0.22-2.07,0.31
	c0.22,1.42,0.46,2.93,0.69,4.44c-0.1,0.03-0.21,0.05-0.31,0.08c-1.31-1.18-2.27-2.6-2.8-4.29c-0.57-1.8-2.23-2.35-3.68-1.08
	C386.23,234.49,384.23,235.65,383.13,237.97z"/>
<path class="st3" d="M386.57,255.21c-0.34-1.31,0.56-3.4,1.65-4.03c0.24-0.14,0.5-0.25,0.74-0.39c0.41-0.24,0.42-0.27,0.17-0.81
	c0.87-0.08,1.58,0.22,2.28,0.65c0.99,0.61,2.01,1.18,3.04,1.77c-0.32,0.05-0.73,0.11-1.1,0.17c0.13,0.84,0.26,1.74,0.4,2.64
	c-0.07,0.02-0.13,0.03-0.2,0.05c-0.71-0.59-1.23-1.33-1.54-2.2c-0.61-1.7-1.36-1.89-2.75-0.73
	C388.27,253.16,387.21,253.91,386.57,255.21z"/>
<circle class="st17" cx="421.36" cy="299.13" r="87.24"/>
<g>
	<path d="M470.73,310.78c-1.01,0.3-2,0.46-3.11-0.9c1.28,0.18,2.23,0.32,3.18,0.45C470.77,310.48,470.75,310.63,470.73,310.78z"/>
	<path d="M418.84,332.91c0.98,1.54,0.21,1.87-0.48,2.23c-0.15-0.07-0.3-0.14-0.45-0.21C418.17,334.36,418.43,333.79,418.84,332.91z"
		/>
	<g>
		<defs>
			<path id="SVGID_4_" d="M334.97,319.8c0,0-0.31-3.54,2.46-1.1c2.77,2.44,2.81,0.02,2.81,0.02l0.96,3.5h2.79l3.56-2.2h4.99h8.86
				l2.12-2.2l1.44,6.17c0,0,4-11.67,11.93-12.57c0,0-1.13-4.07,2.42-4.05c0,0,1.58-1.71,9.82-3.12l2.19,5.44
				c0,0,6.43-2.94,7.59,1.31l-0.52,5.88l6.52,6.64l0.81-4.88l0.04,2.15l4.33,1.13l2.96,3.02l0.84,5.07v2.5v4.01l6.05-1.38l3.38-0.61
				c0,0-2.58-16.7,6.3-12.86c8.89,3.84,4.29-3.66,4.29-3.66l5.18-4.25l-0.7,6.08l6.29-6.6l4.21-5.89l10.37,1l4.37-0.37
				c0,0,1.43-1.62,11.91,5.08l2.74,1.32l1.19,0.7c0,0,2.25-1.57,4.59,2.92c0,0-0.96,2.77,5.59,2.04c0,0,6.37,1.88,7.23,3.2
				l2.06-3.58l3.18,1.13l4.66-0.59l0.93-2.55l3.18-2.57c0,0,4.89-43.68,5.26-44.81c0.37-1.13-58.57-12.25-58.57-12.25l-27.41-5.66
				l-41.62-4.52l-23.6,11.31l-11.97,13.38l-16.69,16.21l-3.61,11.69l-2,10.02c0,0,2.44-0.01,2.54,0.81
				C333.33,312.06,334.97,319.8,334.97,319.8z"/>
		</defs>
		<clipPath id="SVGID_5_">
			<use xlink:href="#SVGID_4_"  style="overflow:visible;"/>
		</clipPath>
		<path class="st18" d="M330.6,339.98c-0.01,0.19,0.03,0.4-0.04,0.56c-0.19,0.43-0.43,0.83-0.65,1.24c-0.18-0.39-0.4-0.77-0.52-1.18
			c-0.11-0.4-0.23-0.87-0.13-1.25c0.09-0.38,0.44-0.7,0.68-1.05c0.24,0.37,0.52,0.73,0.72,1.12
			C330.72,339.56,330.62,339.79,330.6,339.98z"/>
		<path class="st18" d="M354.59,336.88c0.3,0.32,0.79,0.6,0.86,0.97c0.08,0.42-0.21,0.9-0.34,1.36c-0.19-0.01-0.38-0.03-0.57-0.04
			c-0.14-0.68-0.28-1.37-0.43-2.05C354.28,337.05,354.43,336.96,354.59,336.88z"/>
		<path class="st18" d="M336.28,332.66c-0.5,0.11-1,0.21-1.51,0.32c0-0.26-0.06-0.73,0-0.75c0.45-0.13,0.92-0.16,1.39-0.23
			C336.2,332.22,336.24,332.44,336.28,332.66z"/>
		<path class="st18" d="M349.27,331.17c0.27,0.44,0.53,0.88,0.8,1.32c-0.22,0.12-0.45,0.25-0.67,0.37c-0.23-0.47-0.45-0.93-0.68-1.4
			C348.9,331.36,349.08,331.27,349.27,331.17z"/>
		<path class="st18" d="M352.88,331.19c-0.3-0.44-0.63-0.79-0.58-0.87c0.22-0.31,0.55-0.55,0.87-0.76c0.04-0.03,0.49,0.4,0.45,0.49
			C353.5,330.4,353.23,330.69,352.88,331.19z"/>
		<path class="st18" d="M350.95,335.13c0.25-0.62,0.5-1.24,0.76-1.87c0.2,0.08,0.39,0.16,0.59,0.24c-0.25,0.62-0.51,1.25-0.76,1.87
			C351.34,335.29,351.14,335.21,350.95,335.13z"/>
		<path class="st18" d="M396.06,332.55c0.62,0.23,1.27,0.41,1.84,0.73c0.18,0.1,0.29,0.71,0.16,0.87c-0.18,0.23-0.78,0.45-0.9,0.33
			c-0.51-0.46-0.91-1.05-1.35-1.59C395.9,332.78,395.98,332.67,396.06,332.55z"/>
		<path class="st18" d="M384.82,344.41c0-0.35-0.22-1.09,0.05-1.5c0.44-0.66,1.14-1.23,1.85-1.6c0.38-0.2,1.08-0.04,1.51,0.19
			c0.24,0.13,0.38,0.79,0.27,1.12c-0.11,0.32-0.55,0.58-0.91,0.73C386.68,343.75,385.73,344.07,384.82,344.41z"/>
		<path class="st18" d="M384.27,336.5c-0.15-0.52-0.58-1.25-0.39-1.52c0.37-0.51,0.57-1.69,1.85-1.06c-0.36,0.87-0.71,1.7-1.06,2.53
			C384.54,336.48,384.4,336.49,384.27,336.5z"/>
		<path class="st18" d="M365.15,340.5c2.15,0,4.06-0.03,5.96,0.04c0.27,0.01,0.73,0.51,0.75,0.8c0.09,1.13,0.3,2.37-0.07,3.37
			c-0.25,0.69-1.38,1.05-2.11,1.55c-0.08-0.11-0.17-0.22-0.25-0.33c0.21-1.03,0.47-2.05,0.59-3.08c0.04-0.35-0.2-0.94-0.47-1.06
			c-0.35-0.16-0.95-0.1-1.29,0.11C366.83,342.76,366.13,342.56,365.15,340.5z"/>
		<g class="st18">
			<defs>
				<ellipse id="SVGID_6_" cx="419.93" cy="307.09" rx="88.15" ry="87.47"/>
			</defs>
			<clipPath id="SVGID_7_">
				<use xlink:href="#SVGID_6_"  style="overflow:visible;"/>
			</clipPath>
			<g class="st19">
				<defs>
					<ellipse id="SVGID_8_" cx="420.45" cy="303.14" rx="88.76" ry="91.15"/>
				</defs>
				<clipPath id="SVGID_9_">
					<use xlink:href="#SVGID_8_"  style="overflow:visible;"/>
				</clipPath>
				<path class="st20" d="M423.72,370.43c-0.14,0.05-0.28,0.11-0.42,0.18c-0.33,0.17-0.44,1.01-0.44,1.55
					c0,0.84,0.23,1.32,0.85,1.54C423.72,372.61,423.73,371.52,423.72,370.43z M393.48,370.08c-0.33,0.13-0.54,0.58-0.81,0.88
					c0.21,0.17,0.4,0.41,0.62,0.55c0.14-0.51,0.29-1.01,0.45-1.51C393.65,370.03,393.56,370.05,393.48,370.08z M392.81,373.2
					c0.02-0.09,0.05-0.19,0.08-0.28c-0.07,0.06-0.15,0.11-0.22,0.17C392.71,373.12,392.76,373.16,392.81,373.2z M413.25,372.44
					h-0.01c0-0.54-0.03-1.09-0.02-1.63c-0.04,0.04-0.08,0.08-0.12,0.12c-0.39,0.44-0.33,1.84,0.09,2.27
					c0.02,0.02,0.04,0.04,0.06,0.05C413.25,372.99,413.25,372.71,413.25,372.44z M496.18,319.29c-1.57,1.21-2.67,0.29-3.82-0.62
					c-1.12-0.89-2.24-1.76-3.37-2.63c-1.98-0.04-3.95,0.17-5.93,0.26c0.37,0.51,0.71,1.06,0.99,1.68c0.34,0.74,1.23,1.27,1.95,1.77
					c0.2,0.14,0.71-0.17,1.25-0.31c-0.93-0.9-1.69-1.62-2.45-2.35c0.12-0.17,0.24-0.35,0.36-0.53c0.78,0.33,1.58,0.62,2.33,1.01
					c2.01,1.05,3.98,2.16,5.99,3.19c0.42,0.21,0.97,0.22,1.46,0.21c0.66-0.01,1.32-0.14,2.09-0.24
					C496.88,320.49,496.56,319.94,496.18,319.29z M420.59,162.7c-76.55-0.14-138.26,61.92-138.47,138.73
					c-0.11,42.21,18.38,80.07,47.74,105.65c0.17,0.15,0.33,0.29,0.5,0.43c24.16,20.85,55.59,33.42,90.04,33.36
					c75.93-0.13,137.6-62.02,137.78-138.85C558.37,225.08,496.71,162.93,420.59,162.7z M548.57,340.74
					c-0.64,2.03-1.25,4.09-2.04,6.06c-1.72,4.3-3.45,8.6-5.36,12.82c-3.97,8.76-8.92,16.94-14.78,24.55
					c-6.39,8.3-13.6,15.79-21.67,22.43c-9.97,8.2-20.89,14.85-32.77,19.81c-5.17,2.16-10.49,4.03-15.87,5.57
					c-5.25,1.5-10.61,2.77-16.01,3.48c-11.91,1.57-23.84,1.98-35.84,0.41c-5.63-0.74-11.2-1.66-16.66-3.09
					c-5.23-1.37-10.41-3.04-15.43-5.03c-5.42-2.15-10.77-4.58-15.92-7.31c-11.4-6.02-21.54-13.86-30.64-23
					c-9.18-9.22-17.02-19.48-23.06-31.06c-2.55-4.9-4.92-9.9-7.11-14.98c-1.45-3.38-2.47-6.97-3.6-10.48
					c-0.48-1.48-0.26-1.58,1.25-1.58c6.94,0.03,13.88,0.01,20.82,0.01v-0.04c5.13,0,10.27,0.01,15.4,0c0.44,0,0.88,0,1.32,0
					c1.46,0,2.92-0.01,4.38-0.01c1.05-0.01,1.46,0.57,1.9,1.38c2.26,4.16,4.33,8.46,6.91,12.41c3.76,5.76,8.17,11.04,13.17,15.78
					c6.05,5.74,12.69,10.67,20.03,14.55c1.59,0.84,3.19,1.66,4.82,2.44c0.62,0.3,1.25,0.59,1.88,0.88c0.83,0.37,1.67,0.74,2.51,1.08
					c0.32,0.13,0.63,0.26,0.95,0.38c0.68,0.27,1.36,0.52,2.05,0.76c11.37,3.94,23.1,5.92,35.16,5.27
					c8.55-0.45,16.88-2.06,25.05-4.79c14.9-4.97,27.46-13.52,38.18-24.89c3.39-3.6,6.57-7.46,9.08-11.79
					c2.11-3.64,4.18-7.32,6.26-10.98c0.21-0.37,0.42-0.76,0.5-1.17c0.23-1.13,0.96-1.37,1.98-1.36c9.86,0.02,19.73,0.02,29.6,0.02
					c4.11,0,8.21,0.01,12.32-0.05C548.48,339.2,548.91,339.65,548.57,340.74z M509.24,299.86c0.04,0.23,0.12,0.47,0.1,0.7
					c-0.17,2.63-0.3,5.27-0.56,7.9c-0.3,3.06-0.72,6.12-1.08,9.17c-0.12,1.02-0.75,1.21-1.5,0.78c-1.9-1.08-3.73-2.26-5.62-3.36
					c-2.76-1.6-5.52-3.19-8.33-4.69c-0.44-0.24-1.26-0.16-1.72,0.1c-0.97,0.55-1.71,0.82-2.8,0.07c-1.39-0.96-3-1.59-4.52-2.35
					c-1-0.5-1.83-0.25-2.74,0.4c-1.07,0.75-2.27,1.68-3.46,1.76c-1.29,0.08-2.73-0.57-3.94-1.22c-2.69-1.44-5.29-3.06-7.9-4.64
					c-1.02-0.62-1.91-0.54-2.88,0.13c-1.05,0.72-2.16,1.34-3.26,1.99c-2.81,1.66-5.72,1.67-8.8,0.78c-0.99-0.29-2.18,0.17-3.28,0.25
					c-1.86,0.13-3.73,0.23-5.59,0.34c-0.04-0.17-0.08-0.34-0.12-0.51c1.32-1.01,2.55-2.21,3.99-3c3.28-1.8,6.61-3.57,10.05-5.04
					c2.67-1.14,5.57-1.74,8.3-2.73c3.1-1.13,5.59-3.24,8.02-5.41c1.33-1.18,2.43-2.86,4.58-2.64c0.33,0.03,0.7-0.06,0.98,0.07
					c1.38,0.66,2.68,1.05,4.04-0.16c0.3-0.27,1.09-0.03,1.64,0.03c1.92,0.2,3.86-0.94,4.54-2.72c0.31-0.81-0.14-1.38-0.85-1.14
					c-1.98,0.67-3.38,0.1-5.07-1.14c-1.64-1.19-3.9-1.68-6.08-0.7c-0.87,0.39-1.39,0.21-1.45-0.96c-0.03-0.51-0.61-1.17-1.1-1.45
					c-1.76-0.98-3.58-1.86-5.41-2.69c-0.48-0.22-1.08-0.18-1.63-0.22c-0.48-0.03-0.96-0.01-1.84-0.01c1.08-1.14,1.96-1.54,3.1-1.59
					c1.45-0.07,2.91-0.23,4.35-0.47c0.37-0.06,0.82-0.5,0.93-0.86c0.07-0.22-0.38-0.71-0.7-0.92c-0.42-0.27-0.93-0.5-1.42-0.55
					c-1.53-0.14-3-0.35-4.19-1.46c-0.15-0.14-0.44-0.21-0.66-0.2c-2.14,0.09-3.8-0.94-5.4-2.21c-0.34-0.27-1.18-0.24-1.58,0
					c-0.83,0.49-1.36,0.72-2.37,0.09c-0.97-0.61-1.94-1-2.77-1.95c-0.66-0.75-2.02-0.87-3.07-1.28c-2.41-0.94-4.8-1.91-7.22-2.81
					c-2.28-0.85-4.54-1.83-6.89-2.36c-1.46-0.33-3.08,0.14-4.62,0.15c-0.68,0-1.39-0.17-2.02-0.43c-0.81-0.35-1.7-0.72-2.3-1.33
					c-1.38-1.41-2.96-0.96-4.35-0.42c-1.35,0.53-2.4,0.13-3.45-0.43c-1.65-0.87-3.3-1.69-5.2-1.57c-0.51,0.03-1.2,0.3-1.44,0.69
					c-0.6,0.97-1.34,1.27-2.45,1.3c-0.86,0.02-1.73,0.47-2.55,0.81c-1.33,0.55-2.6,1.25-3.94,1.76c-2.11,0.8-4.27,1.47-6.39,2.25
					c-0.41,0.15-0.69,0.64-1.09,0.88c-0.57,0.35-1.17,0.72-1.8,0.88c-2.17,0.54-4.36,0.97-6.53,1.51c-0.27,0.07-0.5,0.51-0.64,0.83
					c-1.11,2.55-3.03,3.56-5.7,2.85c-0.37-0.1-0.74-0.69-0.88-1.12c-0.3-1-0.79-0.89-1.46-0.43c-1.77,1.22-3.51,2.5-5.61,3.13
					c-0.17,0.05-0.41,0.2-0.43,0.34c-0.3,1.65-2.17,1.3-2.97,2.35c-0.14,0.18-1.01,0-1.39-0.25c-0.89-0.59-1.47-0.3-2.06,0.41
					c-1.26,1.53-2.71,2.72-4.83,2.74c-0.27,0-0.63,0.11-0.77,0.3c-1.05,1.47-2.72,1.59-4.24,2.03c-0.4,0.12-0.86,0.26-1.12,0.55
					c-0.25,0.27-0.43,0.76-0.38,1.12c0.04,0.25,0.51,0.56,0.82,0.62c1.42,0.23,2.84,0.78,4.27-0.05c0.23-0.13,0.59-0.02,1.28-0.02
					c-0.65,0.72-0.98,1.42-1.51,1.62c-1.36,0.53-2.31,2.11-4.06,1.65c-0.11-0.03-0.32,0.05-0.39,0.14
					c-1.17,1.73-3.27,1.53-4.83,2.42c-0.48,0.27-0.76,0.92-1.14,1.39c0.5,0.24,0.98,0.64,1.49,0.68c1.43,0.11,2.88,0.06,4.32,0.08
					c0.09,0,0.2-0.04,0.28,0c3.86,1.64,7.01-1.03,10.49-1.73c0.37-0.07,0.74-0.12,1.43-0.24c-0.88,1.62-2.19,1.93-3.35,2.45
					c-0.69,0.3-1.41,0.55-2.02,0.97c-1.03,0.71-0.99,1.72,0.17,2.15c1.45,0.55,2.87,1.04,4.57,0.11c1.69-0.92,3.61-1.06,5.41,0.43
					c2.82,2.34,6.37,2.96,9.84,3.71c3.82,0.82,7.67,1.53,11.44,2.56c3.41,0.93,6.13,3.09,8.24,5.92c2.19,2.95,4.02,6.19,6.92,8.55
					c0.2,0.17,0.3,0.46,0.27,0.98c-0.74-0.37-1.53-0.66-2.21-1.12c-1.78-1.17-3.82-1.84-4.8-4.22c-1.12-2.73-3.73-3.31-6.53-3.17
					c-1.08,0.05-2.17-0.33-3.27-0.43c-0.83-0.08-1.72-0.23-2.5-0.03c-4.41,1.14-8.5,0.69-12.26-2.07c-1.28-0.94-2.68-1.75-4.1-2.48
					c-1.38-0.71-2.4,0.35-3.47,0.98c-3.08,1.81-5.97,3.92-9.41,5.11c-1.78,0.61-2.83-0.59-3.95-1.24c-1.82-1.04-3.29-1.59-5.1-0.01
					c-0.97,0.84-2.24,1.41-3.47,1.85c-0.6,0.21-1.48,0-2.1-0.31c-0.94-0.47-1.71-0.55-2.64,0.02c-3.48,2.14-7,4.23-10.51,6.32
					c-0.11,0.07-0.26,0.07-0.64,0.17c-0.19-1.08-0.52-2.11-0.53-3.16c-0.08-6.98-0.49-14,0-20.94c0.44-6.27,1.95-12.44,4.01-18.46
					c2.1-6.13,4.69-12.02,8.05-17.52c2.42-3.95,5.27-7.63,8.06-11.34c0.68-0.9,1.88-1.39,2.81-2.1c0.37-0.28,0.93-0.62,0.97-0.98
					c0.35-2.93,2.84-4.23,4.65-5.84c3.51-3.13,7.33-5.95,11.18-8.67c5.22-3.7,10.9-6.61,16.93-8.71c4.52-1.58,9.09-3.21,13.76-4.12
					c7.55-1.45,15.2-2.2,22.94-1.64c6.19,0.45,12.29,1.38,18.26,3c7.07,1.92,13.84,4.68,20.22,8.32c6.72,3.84,12.88,8.44,18.39,13.9
					c6.84,6.76,12.58,14.33,16.98,22.93c2.99,5.85,5.48,11.89,7.01,18.28c1.39,5.79,2.88,11.58,2.65,17.63
					C508.67,297.43,509.05,298.65,509.24,299.86z M499.39,325.77c0.1-0.09,0.07-0.37,0.04-0.55c-0.11-0.93-0.25-1.87-0.4-2.98
					c-0.73-0.22-1.26,0.31-1.3,1.13c-0.06,1.17,0.02,2.37,0.23,3.52c0.2,1.11-0.14,1.81-1.27,2.58c-0.09-0.69-0.2-1.16-0.2-1.62
					c0.03-4.19-1.81-6.5-5.88-7.12c-0.94-0.15-1.95,0.23-2.92,0.2c-1.2-0.04-2.39-0.29-3.58-0.37c-0.38-0.03-0.78,0.2-1.17,0.31
					c-0.4,0.11-0.8,0.32-1.2,0.29c-2.25-0.14-3.97,1.28-4.18,3.57c-0.17,1.85-0.08,3.74-0.45,5.53c-0.25,1.23-1,2.41-1.73,3.48
					c-0.45,0.66-1.81,0.17-2.09-0.63c-0.13-0.39-0.31-0.76-0.46-1.14c-0.14-0.02-0.29-0.05-0.44-0.07
					c-0.39,0.68-0.77,1.36-1.17,2.08c-1.17-1.4-0.59-7.04,0.91-9.36c0.31,0.45,0.6,0.88,0.99,1.46c0.82-1.27,1.37-2.55,2.29-3.41
					c0.93-0.88,2.23-1.34,3.56-2.1c-2.06-0.86-2.06-0.86-6.18,3.06c0.25-2.22,0.5-4.32,0.76-6.65c2.29,0.89,4.66,1.82,7.03,2.74
					c0.08-0.04,0.17-0.07,0.25-0.11c-0.6-0.68-1.08-1.6-1.83-1.98c-1.56-0.79-3.32-1.18-4.89-1.95c-0.78-0.38-1.57-1.12-1.95-1.9
					c-0.52-1.06-1.11-2.03-1.82-2.87c-0.21-0.25-0.44-0.49-0.68-0.72c-0.76-0.72-1.66-1.29-2.75-1.66
					c-1.04-0.36-2.18-0.39-3.28-0.55c-0.48-0.07-0.97-0.08-1.59-0.12c1.89-2.32,2.62-2.33,4.77-0.9c2.95,1.95,5.84,3.94,9.36,5.01
					c2.35,0.71,4.65,1.77,6.32,3.65c0.2,0.22,0.39,0.46,0.57,0.7c0.37,0.51,0.71,1.06,0.99,1.68c0.34,0.74,1.23,1.27,1.95,1.77
					c0.2,0.14,0.71-0.17,1.25-0.31c-0.93-0.9-1.69-1.62-2.45-2.35c0.12-0.17,0.24-0.35,0.36-0.53c0.78,0.33,1.58,0.62,2.33,1.01
					c2.01,1.05,3.98,2.16,5.99,3.19c0.42,0.21,0.97,0.22,1.46,0.21c0.66-0.01,1.32-0.14,2.09-0.24c-0.14-0.24-0.46-0.79-0.84-1.44
					c-1.57,1.21-2.67,0.29-3.82-0.62c-1.12-0.89-2.24-1.76-3.37-2.63c-0.19-0.15-0.38-0.29-0.57-0.44
					c-1.01-0.78-2.03-1.56-3.03-2.35c-0.78-0.61-1.56-1.24-2.24-1.95c-0.25-0.26-0.19-0.81-0.27-1.22c0.38,0.03,0.82-0.05,1.14,0.1
					c1.93,0.93,3.88,1.84,5.75,2.89c1.71,0.96,3.31,2.1,4.97,3.14c0.56,0.35,1.12,0.7,1.73,0.95c0.72,0.3,1.48,0.49,2.41,0.79
					c0.02-1.12-0.84-1.6-1.75-2.15c-1.64-1-3.22-2.12-4.8-3.21c-0.16-0.11-0.2-0.39-0.09-0.9c0.45,0.21,0.92,0.37,1.34,0.63
					c3.87,2.33,7.73,4.68,11.61,7.01c0.54,0.32,1.48,0.44,1.6,0.85c0.24,0.76,0.19,1.73-0.05,2.51c-1.09,3.53-2.27,7.03-3.5,10.52
					c-0.12,0.36-0.74,0.75-1.14,0.77c-1.88,0.08-3.78,0.09-5.66-0.02c-0.44-0.03-1.12-0.54-1.22-0.94
					c-0.18-0.71,0.19-1.28,1.13-1.11c0.21,0.04,0.58-0.15,0.7-0.34c0.77-1.18,1.5-2.39,2.34-3.76
					C499.01,327.35,498.5,326.6,499.39,325.77z M491.63,334.01c-1.64,0.09-3.29,0.01-4.93,0.01c-0.9,0-1.32-0.39-1.14-1.32
					c0.05-0.28,0.06-0.57,0.13-0.84c0.14-0.49,0.32-0.98,0.48-1.46c0.35,0.32,0.67,0.67,1.06,0.94c0.28,0.2,0.7,0.48,0.95,0.39
					c1.13-0.39,2.6,0.1,3.37-1.26c0.04-0.07,0.26-0.05,0.61-0.1c0.16,0.92,0.41,1.83,0.41,2.74
					C492.57,333.42,491.97,333.99,491.63,334.01z M481.92,333.92c-0.15,0.04-0.31,0.08-0.46,0.13c-0.28-0.31-0.55-0.64-0.84-0.93
					c-0.24-0.25-0.5-0.55-0.8-0.64c-0.12-0.04-0.38,0.44-0.6,0.66c-0.25,0.25-0.53,0.46-0.8,0.68c-0.03-0.37-0.1-0.75-0.06-1.12
					c0.07-0.65,0.27-1.28,0.31-1.93c0.08-1.11-0.18-2.28,0.92-3.12c0.23-0.18,0.14-0.77,0.22-1.32c1.25,0,2.2,0.8,2.29,1.75
					C482.27,330.01,482.01,331.97,481.92,333.92z M456.98,372.61c-1.37-1.3-1.25-3.55,0.37-4.07c0.46-0.15,1.09,0.05,1.57,0.25
					c0.18,0.08,0.14,0.65,0.14,0.7c-0.87,0.28-1.78,0.3-2.05,0.72c-0.56,0.91,0.3,1.44,0.99,1.85c1.02,0.61,1.26,1.61,0.93,2.58
					c-0.24,0.71-0.86,1.4-1.49,1.85c-0.86,0.61-1.28,0.14-1.23-0.44c0.81-0.64,1.77-1.05,1.84-1.57
					C458.13,373.9,457.5,373.1,456.98,372.61z M457.88,328.34c-0.26-0.27-0.58-0.49-0.86-0.74c-0.16,0.26-0.46,0.53-0.44,0.79
					c0.02,0.47,0.22,1.34,0.36,1.34c1.13,0.01,1.31,0.72,1.38,1.59c0.01,0.13,0.11,0.26,0.19,0.37c0.94,1.34,0.67,2.09-0.98,2.23
					c-1.64,0.14-3.29,0.12-4.94,0.06c-0.31-0.01-0.87-0.54-0.86-0.82c0.08-2.65,0.25-5.3,0.41-7.95c0,0,0,0,0-0.01h0
					c0,0,0-0.01,0-0.01c0.02-0.11,0.15-0.2,0,0c0,0,0,0,0,0.01c1.79,0.29,3.36,0.61,4.94,0.78c1.07,0.12,2.17,0.09,3.25,0.03
					c1.66-0.09,3.61,0.65,4.51-1.84c0.1,0.11,0.19,0.23,0.29,0.35c0,1.06-0.08,2.12,0.02,3.16c0.14,1.46,0.43,2.91,0.65,4.37
					c0.05,0.33,0.18,0.7,0.07,0.98c-0.12,0.33-0.46,0.58-0.7,0.87c-0.18-0.27-0.38-0.53-0.52-0.82c-0.18-0.39-0.32-0.81-0.47-1.22
					c-0.35,0.25-0.73,0.47-1.06,0.75c-0.29,0.24-0.47,0.66-0.79,0.8c-0.48,0.22-1.03,0.26-1.56,0.38c0.12-0.67,0.02-1.54,0.4-1.96
					c0.67-0.72,1.68-1.11,2.47-1.75c0.25-0.2,0.4-0.78,0.31-1.1c-0.16-0.56-0.55-1.05-0.91-1.68c-1.13-0.11-1.26,0.65-1.42,1.51
					c-0.1,0.56-0.4,1.45-0.74,1.52c-0.53,0.1-1.23-0.28-1.74-0.63C458.63,329.35,458.3,328.78,457.88,328.34z M453.78,369.09
					c0.01-0.23,0.33-0.45,0.51-0.67c0.13,0.21,0.38,0.43,0.38,0.64c0.03,2.31,0.04,4.63,0.01,6.94c0,0.23-0.33,0.45-0.5,0.67
					c-0.14-0.21-0.39-0.42-0.4-0.64c-0.04-1.18-0.02-2.36-0.02-3.54C453.76,371.36,453.73,370.22,453.78,369.09z M452.66,375.75
					c0.09,0.25,0.11,0.54,0.16,0.8c-0.11,0.09-0.23,0.18-0.34,0.27c-0.24-0.26-0.57-0.48-0.72-0.78c-0.24-0.51-0.27-1.15-0.58-1.59
					c-0.27-0.38-0.78-0.74-1.22-0.78c-0.23-0.02-0.66,0.61-0.76,1.02c-0.17,0.64-0.14,1.33-0.19,1.99
					c-0.15-0.01-0.29-0.01-0.44-0.02v-8.26c0.83,0,1.77-0.11,2.67,0.03c1.32,0.2,2.21,2.11,1.39,3.61
					C451.87,373.42,452.2,374.51,452.66,375.75z M460.48,368.47c0.17-0.05,0.34-0.1,0.51-0.15c0.73,2.13,1.45,4.25,2.18,6.38
					c0.13,0.01,0.26,0.01,0.39,0.02c0.69-2.14,1.39-4.28,2.08-6.42c0.17,0.03,0.33,0.07,0.5,0.1c0.07,0.34,0.19,0.67,0.2,1.01
					c0.01,2.09,0.01,4.18-0.04,6.26c-0.01,0.35-0.29,0.68-0.45,1.02c-0.15-0.34-0.42-0.67-0.43-1.01c-0.06-1.14-0.02-2.27-0.35-3.46
					c-0.49,1.49-0.98,2.98-1.47,4.47c-0.15,0.03-0.3,0.05-0.44,0.08c-0.58-1.57-1.16-3.14-1.73-4.72c-0.14,0.01-0.27,0.02-0.41,0.03
					v4.56c-0.18-0.01-0.35-0.01-0.53-0.01V368.47z M444.65,376.73c-1.48-0.08-2.09-0.61-2.18-2.04c-0.06-0.94-0.01-1.9-0.01-2.84
					h-0.03c0-0.9-0.03-1.8,0.02-2.7c0.02-0.25,0.3-0.49,0.46-0.72c0.16,0.24,0.45,0.49,0.45,0.73c0,1.47-0.12,2.93-0.11,4.4
					c0.01,1.04-0.02,2.18,1.51,2.24c1.13,0.04,1.65-0.51,1.65-1.62c0-1.61-0.02-3.22,0.02-4.83c0.01-0.31,0.26-0.62,0.4-0.92
					c0.18,0.27,0.5,0.55,0.5,0.81c-0.01,1.89-0.02,3.78-0.18,5.66C447.02,376.29,446.19,376.81,444.65,376.73z M438.36,376.72
					c-1.52,0-2.94-1.93-3.01-4.09c-0.08-2.31,1.4-4.54,3.01-4.54c1.57,0,3,2.1,3.01,4.4C441.38,374.67,439.92,376.72,438.36,376.72z
					 M415.29,376.73c-2.08,0.02-2.08,0.02-2.05-2.02c0-0.15,0.01-0.31,0-0.46c0-0.33,0-0.66,0-0.99c0-0.27,0-0.55,0-0.82h-0.01
					c0-0.54-0.03-1.09-0.02-1.63c0.01-0.17,0.01-0.33,0.03-0.5c0.02-0.18,0.05-0.41,0.09-0.63c0.1-0.58,0.25-1.19,0.35-1.19
					c1.13,0.02,2.36,0.05,3.34,0.54c0.14,0.07,0.25,0.26,0.34,0.51c0.07,0.19,0.11,0.42,0.14,0.65c0.04,0.4,0.03,0.81-0.07,1.09
					c-0.23,0.72-0.2,1.15,0.12,1.78c0.1,0.21,0.18,0.42,0.24,0.62v0c0.05,0.18,0.08,0.36,0.09,0.53c0,0,0,0,0,0
					C417.98,375.61,416.93,376.72,415.29,376.73z M407,377.01c-0.14-0.53-0.31-0.79-0.25-1c0.18-0.65,0.36-1.3,0.55-1.95
					c0.25-0.88,0.5-1.77,0.76-2.65c0.23-0.78,0.46-1.56,0.7-2.35c0.08-0.26,0.39-0.49,0.65-0.63c0.09-0.05,0.46,0.18,0.51,0.35
					c0.81,2.59,1.59,5.19,2.38,7.78c-0.08,0.15-0.16,0.31-0.25,0.46C410.35,374.54,408.68,373.77,407,377.01z M405.92,375.76
					c0,0.31-0.25,0.63-0.38,0.94c-0.27-0.21-0.65-0.36-0.81-0.63c-0.47-0.78-0.93-1.56-1.38-2.35c-0.14-0.23-0.27-0.47-0.41-0.7
					c-0.34-0.59-0.68-1.18-1.01-1.76c-0.08-0.14-0.16-0.28-0.24-0.43l-0.49,0.1v5.97c-0.39-0.49-0.63-2.03-0.7-3.8
					c-0.01-0.29-0.02-0.58-0.02-0.88c-0.01-0.62,0-1.24,0.03-1.86c0.01-0.32,0.04-0.63,0.06-0.94c0.04-0.49,0.1-0.96,0.17-1.39
					c0.97,0.96,1.6,2.06,2.22,3.19c0.26,0.48,0.53,0.97,0.81,1.45c0.37,0.63,0.78,1.25,1.29,1.85v-6.05
					c0.18-0.01,0.35-0.03,0.53-0.04c0.07,0.41,0.2,0.83,0.22,1.24c0.01,0.04,0.01,0.07,0.01,0.11c0.05,1.54,0.09,3.09,0.1,4.63
					C405.92,374.87,405.92,375.31,405.92,375.76z M392.45,374.45c0.12-0.42,0.23-0.83,0.35-1.25c0.02-0.09,0.05-0.19,0.08-0.28
					c0.13-0.47,0.27-0.94,0.41-1.4c0.14-0.51,0.29-1.01,0.45-1.51c0.05-0.18,0.1-0.36,0.16-0.54c0.03-0.09,0.05-0.17,0.08-0.26
					c0.1-0.31,0.4-0.59,0.67-0.8c0.05-0.04,0.52,0.25,0.58,0.45c0.8,2.55,1.56,5.11,2.34,7.66c-0.14,0.09-0.28,0.18-0.42,0.27
					c-0.9-0.43-0.81-1.93-2.36-1.9c-1.51,0.03-1.76,1.02-2.65,1.82c-0.02-0.32-0.13-0.66-0.05-0.96
					C392.21,375.32,392.33,374.88,392.45,374.45z M401.24,321.74c0.43,1.98,0.61,4.02,1.08,6c0.28,1.16,0.74,2.38,1.45,3.31
					c0.67,0.88,1.78,1.44,2.99,2.36c-0.29,0.15-0.71,0.53-1.16,0.57c-0.94,0.08-2.56-1.29-3.37-2.83c-0.87,0.96-1.69,1.87-2.51,2.78
					c-0.17-0.09-0.34-0.18-0.51-0.27c0.18-0.55,0.39-1.1,0.52-1.66c0.08-0.36,0.02-0.75,0.03-1.13c-0.36,0.15-0.82,0.21-1.05,0.47
					c-0.47,0.53-0.81,1.16-1.23,1.74c-0.03,0.04-0.05,0.07-0.08,0.11c-0.2,0.27-0.56,0.69-0.75,0.77c-0.03,0.01-0.06,0.01-0.08,0.01
					c-0.38-0.16-0.88-0.57-0.92-0.93c-0.43-3.54-0.73-7.09-1.17-10.63c-0.17-1.35-0.1-2.35,1.31-3.03
					C397.63,318.47,400.8,319.71,401.24,321.74z M398.27,317.57c0.03-0.17,0.06-0.33,0.09-0.49c0.82,0.15,1.63,0.31,2.45,0.46
					c-0.02,0.16-0.03,0.31-0.05,0.47C399.79,318.57,398.96,318.43,398.27,317.57z M380.07,294.39c-0.43-0.2-0.8-0.52-1.2-0.78
					c0.07-0.11,0.14-0.23,0.2-0.34c1.16,0.11,2.35,0.13,3.49,0.35c1.45,0.29,2.7,0.25,4.2-0.31c1.16-0.44,2.85,0.44,4.28,0.84
					c1.62,0.45,3.21,1.01,4.8,1.55c3.39,1.15,6.95,2.08,9,5.4c0.88,1.42,1.42,3.06,2.07,4.61c0.08,0.2-0.07,0.51-0.19,1.19
					c-0.71-0.9-1.19-1.54-1.69-2.16c-1.87-2.33-4.4-3.77-7.11-4.68c-3.24-1.08-6.6-1.85-9.95-2.52c-1.74-0.35-3.35-0.8-4.85-1.77
					C382.19,295.17,381.08,294.87,380.07,294.39z M380.56,296.04c-2.37,0.03-4.39-1.22-6.78-1.98c0.72-1.26,1.63-1.45,2.6-0.9
					C377.84,293.99,379.21,294.96,380.56,296.04z M434.07,290.98c0.05-0.16,0.53-0.19,0.82-0.29c0.06,0.29,0.25,0.62,0.16,0.85
					c-0.28,0.72-0.66,1.41-1,2.11c-0.17-0.03-0.33-0.06-0.5-0.09C433.71,292.7,433.84,291.82,434.07,290.98z M433.88,286.48
					c0.32-0.29,0.61-0.73,0.97-0.81c0.35-0.08,0.78,0.22,1.18,0.35c0.01,0.13,0.03,0.26,0.05,0.39c-0.44,0.27-0.87,0.64-1.35,0.74
					C434.51,287.21,434.17,286.72,433.88,286.48z M435.77,292.37c0.15-0.23,0.27-0.51,0.3-0.78c0.19-1.61,0.99-2.26,2.8-2.22
					c-0.34,0.62-0.64,1.14-0.93,1.67c0.6,0.15,1.2,0.31,1.79,0.45c-1.51,1.4-3.25,2.69-4.56,4.33c-1.29,1.61-2.14,3.57-3.22,5.45
					c-0.11-0.16-0.32-0.34-0.29-0.44c0.41-1.42,0.69-2.91,1.34-4.21C433.75,295.12,434.85,293.78,435.77,292.37z M460.68,289.62
					c0.35,0.21,0.79,1,0.66,1.2c-1.17,1.93-2.43,3.8-3.74,5.64c-0.27,0.39-0.81,0.64-1.27,0.82c-1.53,0.6-3.08,1.14-4.63,1.68
					c-0.24,0.09-0.52,0.07-0.79,0.1c-0.07-0.1-0.14-0.2-0.21-0.3c1.16-1.34,2.44-2.58,3.44-4.03c0.94-1.37,1.68-2.91,2.33-4.46
					c0.42-0.99,0.4-2.16,0.8-3.16c0.41-1.05,1.3-0.8,2.1-0.49c0.03,0.17,0.09,0.28,0.06,0.35c-0.24,0.67-0.48,1.34-0.73,2.01
					C459.38,289.19,460.1,289.28,460.68,289.62z M462.13,294.37c1.69-1.49,3.42-2.93,5.04-4.47c1.12-1.07,3.74-1.73,4.72-1.2
					c-1.45,1.4-2.76,2.92-4.32,4.12c-1.8,1.4-3.9,2.27-6.11,2.81c-0.08-0.13-0.17-0.26-0.25-0.39
					C461.52,294.94,461.82,294.64,462.13,294.37z M463.42,289.34c0.16-0.14,0.59-0.14,0.78-0.02c0.16,0.11,0.28,0.58,0.18,0.72
					c-0.61,0.84-1.28,1.62-1.93,2.42c-0.17-0.12-0.33-0.24-0.5-0.35C461.75,290.85,462.58,290.07,463.42,289.34z M455.39,288.43
					c-0.16,0.11-0.43,0.05-0.57,0.07c-0.15,3.32-1.71,5.87-3.63,8.31c-2.5,3.18-6.03,5.06-9.09,7.53c-1.76,1.42-3.29,3.13-5.03,4.57
					c-1.99,1.64-4.1,3.13-6.14,4.7c-0.86,0.66-1.66,1.39-2.51,2.07c-0.43,0.35-0.9,0.65-1.65,1.2c0.2-0.68,0.25-1.02,0.39-1.32
					c1.23-2.65,2.44-5.31,3.74-7.93c0.27-0.54,0.86-1.01,1.41-1.29c3.12-1.6,6.02-3.51,8.6-5.89c0.39-0.36,0.6-0.9,0.95-1.44
					c-1.05,0.1-1.91,0.18-2.76,0.26c-0.07-0.17-0.14-0.34-0.2-0.51c-1.2,2.81-3.2,4.66-6.16,5.58c0-0.36-0.08-0.62,0.01-0.8
					c0.99-1.93,1.98-3.87,3.05-5.77c0.27-0.48,0.73-0.92,1.2-1.16c0.28-0.15,1.04,0.03,1.12,0.23c0.37,1.01,1.02,0.79,1.83,0.74
					c1.52-0.09,3.05,0.05,4.57,0.07c1.21,0.02,2.42,0,3.64,0c-0.24-1.8-1.96-2.81-3.46-2.38c-0.96,0.27-2.01,0.22-3.38,0.35
					c0.39-0.56,0.44-0.74,0.53-0.76c1.61-0.42,3.26-0.74,4.84-1.26c1.19-0.39,2.27-1.11,3.45-1.55c0.75-0.27,1.6-0.27,2.39-0.43
					c0.38-0.08,0.86-0.15,1.08-0.4c0.16-0.18,0.09-0.8-0.1-1c-0.64-0.69-0.62-2.12-2.1-1.94c-0.16,0.02-0.59-0.56-0.54-0.81
					c0.04-0.26,0.55-0.67,0.76-0.62c0.53,0.12,1.01,0.46,1.6,0.77c0.16-1.29,1.29-0.99,2.23-0.88c0.37,0.04,0.69,0.53,1.04,0.82
					C456.14,287.84,455.79,288.17,455.39,288.43z M442.92,333.15c-0.15-0.16-0.31-0.33-0.49-0.46c-0.5-0.37-1.01-0.73-1.75-1.26
					c-0.03,0.39-0.06,0.93-0.13,1.46c-0.04,0.31-0.16,0.6-0.24,0.9c-0.25-0.07-0.49-0.15-0.74-0.21c-0.41-0.1-0.83-0.19-1.39-0.31
					c-0.03-0.07-0.1-0.35-0.22-0.6c-0.41-0.88-0.96-0.92-1.53-0.12c-1.31,1.85-1.7,1.91-3.54,0.53c-0.21,0.23-0.38,0.55-0.64,0.67
					c-0.29,0.13-0.67,0.07-1.01,0.09c0.03-0.29,0.01-0.6,0.1-0.88c0.07-0.21,0.35-0.38,0.38-0.58c0.03-0.29-0.09-0.61-0.14-0.91
					c-0.31,0.12-0.71,0.16-0.92,0.38c-0.58,0.6-1.09,1.28-1.62,1.93c-0.16-0.09-0.31-0.17-0.47-0.26c0.14-0.5,0.34-0.98,0.4-1.49
					c0.03-0.28-0.17-0.59-0.26-0.88c-0.26,0.13-0.6,0.19-0.76,0.4c-0.44,0.55-0.76,1.19-1.2,1.74c-0.21,0.27-0.62,0.62-0.84,0.56
					c-0.34-0.1-0.71-0.47-0.83-0.81c-0.08-0.23,0.23-0.63,0.43-0.9c0.36-0.47,0.86-0.85,1.15-1.35c0.59-1.04,1.5-0.76,2.38-0.74
					c0.39,0.01,0.8-0.05,1.16-0.19c0.1-0.04,0.13-0.69,0.02-0.74c-0.38-0.2-0.82-0.33-1.25-0.38c-1.43-0.15-2.86-0.22-4.29-0.39
					c-0.22-0.03-0.39-0.42-0.59-0.64c0.26-0.21,0.49-0.57,0.78-0.62c1.31-0.25,2.65-0.43,4.16-0.66c0.01-0.23,0.03-0.64,0.05-1.04
					c0.07-0.87-0.29-1.1-1.12-0.86c-0.37,0.11-0.82-0.03-1.23-0.07c0.11-0.41,0.24-0.82,0.33-1.23c0.08-0.37,0.12-0.75,0.18-1.12
					c-0.49-0.07-1.01-0.27-1.46-0.17c-0.25,0.05-0.61,0.69-0.53,0.94c0.46,1.45-0.47,2.37-1.28,3.19c-0.92,0.93-0.74,1.53-0.26,2.69
					c0.49,1.19,0.13,2.76,0.04,4.15c-0.01,0.19-0.63,0.51-0.9,0.45c-0.24-0.05-0.55-0.53-0.57-0.83c-0.16-3.08-0.52-6.2,0.83-9.12
					c0.86-1.88,2.28-3.23,4.3-3.85c0.54-0.17,1.1-0.34,1.56-0.65c1.7-1.16,3.44-2.1,5.6-2.11c0.65,0,1.3-0.62,1.78-0.87
					c-0.08,3.6-0.23,7.32-0.24,11.04c0,1.72-1.27,2.48-2.27,3.38c-0.7,0.63-0.98,1.21-0.46,1.93c0.61,0.84,1.58,0.66,2.09,0.01
					c0.97-1.24,1.97-2.56,2.48-4.02c0.55-1.58,0.6-3.34,0.79-5.04c0.27-2.53,0.83-3.02,3.32-2.9c0.53,0.03,1.1-0.13,1.6-0.33
					c1.07-0.44,1.84-0.34,2.16,0.92c0.08,0.32,0.26,0.65,0.23,0.96c-0.35,3.75-0.06,7.59-1.66,11.14c-0.16,0.35-0.49,0.61-0.75,0.92
					C443.39,333.68,443.16,333.41,442.92,333.15z M433.94,369.29c-0.9-0.04-0.98,0.53-0.97,1.2c0.04,1.61,0.09,3.22,0.1,4.83
					c0.01,0.46-0.08,0.93-0.13,1.4c-0.2,0-0.4,0-0.59,0c-0.07-0.47-0.18-0.93-0.18-1.4c-0.01-1.52,0.01-3.03,0.03-4.55
					c0.01-0.8,0.05-1.57-1.12-1.5c-0.16,0.01-0.35-0.31-0.52-0.48c0.21-0.14,0.42-0.39,0.63-0.4c0.89-0.05,1.79-0.05,2.68,0.01
					c0.24,0.02,0.46,0.31,0.69,0.48C434.35,369.02,434.14,369.3,433.94,369.29z M429.85,339.96c-1.31,0.92-2.02,2.47-2.86,3.87
					c-0.93,1.55-2.02,2.85-4.07,2.81c2.38-0.4,3.11-2.39,4.12-4.16c0.82-1.42,1.78-2.75,2.72-4.17c-1.38-1.86-3.67-2.75-5.67-2.07
					c-2.22,0.74-3.49,2.55-4.81,4.82c0.48-2.88,3.04-5.68,5.24-6.08c1.34-0.24,2.79,0.1,4.1,0.89c0.35,0.21,0.69,0.45,1.01,0.72
					c0.63,0.53,1.2,1.16,1.69,1.89c0.13,0.2,0.26,0.41,0.38,0.63c0.02,0.03,0.03,0.05,0.05,0.08c-0.05,0.01-0.11,0.02-0.16,0.03
					C430.9,339.36,430.34,339.62,429.85,339.96z M425.23,359.92c0.54,0.56,1.63,0.59,2.38,0.81c-0.57,0.75-1.61,0.87-2.58,0.04
					c-1.03-0.88-1.1-3.03-0.14-3.99c0.93-0.91,1.96-0.89,2.62-0.18c-0.75,0.29-1.84,0.42-2.38,1.04
					C424.75,358.09,424.81,359.49,425.23,359.92z M418.92,361.13c0.67-1.7,1.33-3.4,2-5.1c0.17,0,0.35,0,0.52,0
					c0.67,1.7,1.34,3.4,2.02,5.1C421.88,359.71,420.5,359.62,418.92,361.13z M414.07,350.7c-1.59,0.08-2.26-1.06-3.03-2.17
					c-0.8-1.15-1.76-2.19-2.81-3.47c0.45-1.16,2.45-2.66,3.98-2.64c1.73,0.02,3.19,1.46,3.86,3.64c-0.81-0.7-1.67-1.81-2.8-2.31
					c-1.25-0.56-2.56-0.03-3.62,1.28C411.64,346.54,411.34,349.75,414.07,350.7z M412.21,359.86c-0.93,0.04-1.68,0.1-1.72,1.37
					c-0.13-0.05-0.27-0.11-0.4-0.17c0-1.4-0.03-2.79,0.03-4.19c0.01-0.26,0.39-0.71,0.61-0.72c1.04-0.04,2.2-0.37,2.92,0.8
					C414.43,358.22,413.69,359.79,412.21,359.86z M414.45,347.11c0.84,1.02,1.68,2.04,2.64,3.22c1.7-4.31,3.97-7.98,8.14-10.06
					c-3.89,3.47-6.8,7.53-7.76,12.9c-1.05-2.03-2.06-4-3.08-5.97C414.41,347.17,414.43,347.14,414.45,347.11z M414.66,292.05
					c-1.25-1.34-2.59-2.61-3.95-3.84c-0.26-0.24-0.8-0.31-1.18-0.26c-1.57,0.21-3.11,0.56-4.68,0.72c-0.42,0.04-0.88-0.42-1.56-0.77
					c0.54-0.35,0.76-0.61,0.99-0.63c1.8-0.15,3.69,0.06,5.37-0.45c2.79-0.84,3.44,1.28,4.65,2.79c1.74,2.17,2.46,4.55,1.65,7.3
					c-0.08,0.26-0.2,0.51-0.41,1.03c-1.42-1.57-2.67-2.95-3.92-4.32c0.08-0.13,0.16-0.26,0.24-0.4c0.5,0.12,0.99,0.31,1.5,0.35
					c0.48,0.04,0.97-0.07,1.46-0.11C414.79,292.99,414.93,292.34,414.66,292.05z M416.07,290.39c-1.13-1.99-2.26-3.98-3.39-5.97
					c0.07-0.13,0.13-0.27,0.19-0.4c1.01,0.29,2.02,0.58,3.03,0.88c0.08,0.03,0.2,0.11,0.21,0.18c0.22,1.7,0.43,3.4,0.65,5.09
					C416.53,290.24,416.3,290.32,416.07,290.39z M413.05,278.86h2.54c0,0.11,0.01,0.23,0.01,0.34h-2.54
					C413.05,279.09,413.05,278.97,413.05,278.86z M422.22,293.43c-0.42,1.36-0.82,2.55-1.16,3.75c-0.15,0.53-0.35,1.13-0.25,1.65
					c0.33,1.77-0.34,3.22-1.12,4.73c-0.73,1.41-1.25,2.92-1.9,4.49C415.71,303.4,417.96,295.26,422.22,293.43z M417.46,285.15
					c0-0.21,0.39-0.43,0.6-0.64c0.16,0.24,0.45,0.49,0.44,0.72c-0.03,0.59-0.2,1.16-0.32,1.75c-0.16,0.01-0.33,0.01-0.49,0.02
					C417.6,286.38,417.45,285.77,417.46,285.15z M420.18,306.91c1.31-3.65,3.56-6.75,5.73-9.9c1.27-1.85,2.62-3.59,4.6-4.72
					c0.43-0.25,0.88-0.48,1.66-0.89c0,0.78,0.08,1.2-0.01,1.58c-0.6,2.39-1.29,4.75-1.84,7.14c-0.45,1.98-0.68,4.01-1.13,5.98
					c-0.24,1.04-0.65,2.05-1.11,3.02c-1.47,3.07-2.89,6.2-5.4,8.61c-0.61,0.59-1.27,1.12-1.95,1.63c-0.74,0.55-1.1,0.34-1.34-0.6
					C418.34,314.71,418.79,310.77,420.18,306.91z M415.09,356.47c0.02-0.17,1.49-0.31,2.26-0.22c0.88,0.1,1.2,0.82,1.09,1.69
					c-0.14,1.06-0.31,2.13-0.46,3.22c-0.41-0.51-0.81-1.52-1.47-1.74c-1.39-0.47-0.8,1.09-1.52,1.96
					C414.99,359.54,414.91,357.99,415.09,356.47z M432.9,361.17v-4.99h0.36v4.99H432.9z M434.16,313.78
					c1.08-1.01,2.16-2.01,3.24-3.02c0.11,0.1,0.23,0.21,0.34,0.31C437.65,313.25,435.63,313.19,434.16,313.78z M439.29,317.61
					c1.03-0.2,1.9-0.37,2.77-0.54C441.22,318.51,440.32,318.64,439.29,317.61z M446.89,291.38c-0.2,0.9-5.99,3.2-7.65,2.95
					C441.15,292.05,444.25,290.88,446.89,291.38z M441.29,288.2c1.48-1.75,5.86-2.35,7.31-0.94
					C446.23,287.67,443.93,288.58,441.29,288.2z M451.57,278.11c-2-0.19-4-0.37-6-0.56c-0.01,0.01-0.03,0.02-0.05,0.03h-0.05
					c-0.8,1.12-2.75,1.81-4.15,1.4c1.14-1.34,2.63-1.42,4.15-1.4c0.01-0.01,0.01-0.02,0.02-0.03c0.03,0,0.05,0.01,0.07,0.01
					c0.56-0.3,1.14-0.87,1.65-0.8c1.5,0.2,2.95,0.67,4.43,1.03C451.62,277.89,451.59,278,451.57,278.11z M442.58,286.19
					c-1.3,0.67-2.29,1.18-3.46,1.8C439.6,286.15,440.93,285.4,442.58,286.19z M432.26,288.56c-1.46,1.16-3.14,2.08-4.44,3.38
					c-1.44,1.44-2.59,3.2-3.84,4.84c-0.53,0.69-0.99,1.44-1.49,2.16c-0.18-0.07-0.35-0.13-0.53-0.2c0.1-0.5,0.15-1.01,0.29-1.5
					c0.44-1.52,0.88-3.05,1.41-4.54c0.17-0.49,0.5-1.06,0.92-1.3c1.06-0.61,2.17-1.16,3.33-1.52c1.43-0.44,2.2-1.5,3.06-2.57
					c0.31-0.39,0.84-0.67,1.33-0.8c0.18-0.05,0.78,0.53,0.73,0.7C432.9,287.7,432.64,288.25,432.26,288.56z M426.86,287.13
					c-0.23,0.34-0.57,0.61-0.89,0.88c-1.54,1.29-3.08,2.58-4.62,3.86c-0.1-0.1-0.2-0.2-0.3-0.29c0.44-0.59,0.76-1.4,1.34-1.73
					c1.3-0.74,1.81-1.96,2.47-3.16c0.25-0.45,0.99-0.86,1.51-0.86C427.22,285.83,427.28,286.5,426.86,287.13z M418.33,294.13
					c-0.07-2.3-0.15-4.21,0.65-6.11c0.34-0.81,0.43-1.81,0.37-2.7c-0.07-1.04,0.2-1.44,1.19-1.15c1.12,0.33,2.21,0.74,3.61,1.22
					C422.29,288.18,420.44,290.96,418.33,294.13z M420.4,273.07c-0.86-0.05-1.74,0.02-2.56-0.18c-1.77-0.44-3.33-0.55-5.12,0.43
					c-1.61,0.88-3.65,0.97-5.5,1.41c-0.02-0.12-0.05-0.25-0.07-0.37c1.76-0.63,3.52-1.26,5.28-1.89c0.18-0.06,0.4-0.09,0.52-0.21
					c1.48-1.51,3.02-0.84,4.63-0.22c0.9,0.35,1.9,0.41,2.85,0.61C420.42,272.78,420.41,272.92,420.4,273.07z M409.08,279.47
					c-0.71,1.76-4.22,3.09-6.48,2.42C404.88,281.04,406.92,280.28,409.08,279.47z M404.2,294.83c0.25,0.54,0.77,0.95,1.08,1.47
					c0.33,0.55,0.54,1.17,0.61,1.81c-1.54-1.68-3.09-3.36-4.52-4.91C403.23,292.74,403.25,292.77,404.2,294.83z M400.58,289.8
					c-0.15,0.07-0.37-0.01-0.96-0.05c-0.21,0.04-0.83,0.32-1.39,0.22c-0.41-0.07-0.73-0.64-1.1-0.98c0.32-0.24,0.62-0.64,0.97-0.68
					c0.87-0.09,1.77-0.1,2.64,0.02c0.35,0.05,0.65,0.52,0.97,0.8C401.33,289.35,400.97,289.61,400.58,289.8z M399.3,295.21
					c-2.48-1-5.24-1.15-7.71-2.5c1.94-2.2,1.94-2.2,4.07-1.24c-0.5,1.77-0.45,1.87,1.45,1.94
					C398.27,293.45,399.02,293.94,399.3,295.21z M394.79,289.7c-0.58-0.34-1.03-0.91-1.54-1.38c-0.92,0.67-0.92,0.67-3.37-0.34
					c0.07,0.23,0.14,0.39,0.16,0.55c0.05,0.37,0.08,0.74,0.11,1.11c-0.45-0.11-1.01-0.09-1.33-0.35c-0.94-0.77-1.79-1.65-2.9-2.71
					c1.75,0,3.44,0,5.15,0c0.69,0,1.38,0.05,2.05-0.03c1.46-0.17,2.98,0.94,3.02,2.28C396.16,289.93,395.74,290.25,394.79,289.7z
					 M405.76,295.02c-0.27-0.53-0.65-1.01-0.95-1.47c0.14-0.2,0.21-0.34,0.25-0.34c1.48,0.27,3.18,0.18,4.37,0.92
					c2.5,1.55,4.43,3.8,5.7,6.53c0.18,0.37,0.31,0.8,0.34,1.21c0.31,4.01,0.59,8.02,0.88,12.03c0.03,0.36,0,0.72,0,1.09
					c-0.14,0.09-0.29,0.17-0.43,0.26c-0.87-0.92-1.93-1.72-2.57-2.79c-1.38-2.3-2.56-4.72-3.78-7.11c-0.41-0.8-0.72-1.65-0.99-2.51
					c-0.55-1.68-0.99-3.38-1.57-5.05C406.68,296.84,406.22,295.92,405.76,295.02z M413.69,322.27c1.61,3.42,1.25,7.03,1.1,10.63
					c-0.01,0.31-0.25,0.62-0.43,1.04c-1.12-1.26-2.09-2.35-3.11-3.5c0.21-0.16,0.35-0.26,0.48-0.37c0.47-0.37,1.36-0.78,1.33-1.1
					c-0.08-0.77-0.44-1.67-0.99-2.15c-0.28-0.24-1.23,0.36-1.89,0.52c-0.52,0.13-1.16,0.39-1.58,0.21c-1.4-0.58-2.78-1.29-2.23-3.41
					c-1.39,1.59-0.62,3.88,1.09,4.22c1.32,0.27,1.63,1.04,1.18,3.15c1.05,0.38,3.18-0.24,2.4,2.15c-0.76-0.09-1.45-0.18-1.97-0.24
					c-1.06-1.19-1.97-2.48-3.14-3.45c-1.52-1.26-1.64-2.92-1.69-4.62c-0.07-2.6,0-5.21-0.07-7.82c-0.02-0.64-0.36-1.28-0.69-2.38
					c1.52,0.82,2.69,1.46,3.87,2.07c0.54,0.28,1.09,0.66,1.66,0.7C411.74,318.14,412.7,320.17,413.69,322.27z M398.84,361.71
					c-0.9-2-2.14-3.47-1.36-5.55c0.35,1.39,0.71,2.77,1.07,4.16c0.19,0,0.38,0,0.57,0.01c0.33-1.32,0.67-2.64,1.02-4.04
					c0.32,1.29,0.65,2.59,0.97,3.88c0.2,0.01,0.41,0.02,0.61,0.04c0.35-1.34,0.7-2.68,1.03-3.97c0.78,1.03,0.24,3.17-1.46,5.15
					c-0.39-0.72-0.74-1.38-1.19-2.22C399.68,360.03,399.34,360.7,398.84,361.71z M398.44,376.73c-0.08-0.41-0.21-0.83-0.22-1.24
					c0-0.36-0.01-0.71-0.01-1.07c-0.01-1.54-0.01-3.08,0.02-4.62c0-0.09,0-0.17,0.01-0.26c0.01-0.38,0.32-0.74,0.49-1.12
					c0.14,0.33,0.38,0.66,0.41,0.99c0,0.02,0,0.04,0,0.06c0,0.17,0.01,0.34,0.01,0.51c0.02,0.87,0.02,1.74,0.02,2.62
					c0,0.23,0,0.46,0,0.69c0,0.76-0.01,1.52-0.01,2.27c0,0.39-0.11,0.77-0.17,1.16C398.81,376.72,398.63,376.72,398.44,376.73z
					 M404.5,361.16c-0.22-0.05-0.28-0.98-0.34-1.51c-0.06-0.52-0.02-1.04-0.02-1.56c-0.01-2.16,0.65-2.56,2.88-1.45
					c-0.5,0.04-1.05-0.02-1.5,0.16c-0.33,0.13-0.54,0.58-0.81,0.88c0.28,0.23,0.53,0.57,0.85,0.66c0.45,0.13,0.95,0.08,1.43,0.11
					c0.01,0.15,0.01,0.3,0.02,0.45c-0.41,0.05-0.85,0.01-1.21,0.16c-0.4,0.16-0.73,0.49-1.09,0.74c0.38,0.28,0.73,0.64,1.15,0.83
					c0.35,0.15,0.78,0.1,1.18,0.14c0,0.16,0,0.31,0.01,0.47C406.18,361.24,405.31,361.34,404.5,361.16z M422.19,376.71
					c-1.03,0.04-2.05,0.02-3.13,0.02v-8.24c0.2,0,0.39,0,0.59,0v7.31c1.03,0,1.77-0.04,2.5,0.02c0.24,0.02,0.45,0.32,0.68,0.49
					C422.62,376.44,422.41,376.7,422.19,376.71z M423.71,374.01v-0.31c0.01-1.09,0.02-2.18,0.01-3.27c0-0.3-0.01-0.6-0.01-0.9v-0.08
					c-0.02-0.78,0.24-1.15,1.06-1.09c0.65,0.05,1.32-0.03,1.97,0.04c0.28,0.03,0.55,0.25,0.82,0.39c-0.06,0.17-0.12,0.35-0.17,0.52
					c-0.55,0-1.1,0.04-1.64-0.01c-0.38-0.03-0.66,0.03-0.86,0.18c-0.22,0.16-0.33,0.42-0.39,0.76c-0.01,0.11-0.03,0.22-0.03,0.34
					c-0.03,0.9,0.33,1.26,1.26,1.26c0.4,0,0.81,0.14,1.21,0.28c0.17,0.06,0.34,0.11,0.5,0.16c-0.17,0.05-0.34,0.11-0.52,0.17
					c-0.41,0.14-0.81,0.28-1.21,0.27c-0.95-0.03-1.23,0.41-1.25,1.13c-0.01,0.09,0,0.18,0,0.28c0.01,0.15,0.01,0.29,0.02,0.44
					c0.04,0.72,0.21,1.33,1.29,1.25c0.55-0.04,1.1-0.01,2.05-0.01c-0.41,0.5-0.57,0.72-0.75,0.9c-0.05,0.05-0.18,0.02-0.27,0.03
					c-2.81,0.35-3.07,0.28-3.08-2.25C423.71,374.33,423.71,374.17,423.71,374.01z M429.85,360.65c-0.02-0.7,0.05-1.41,0.07-2.12
					c0.03-0.96,0.1-1.94-1.46-1.93c0.07-0.12,0.14-0.23,0.21-0.35h2.62c-0.3,0.77-0.71,1.48-0.83,2.24
					c-0.14,0.89-0.03,1.82-0.3,2.83C430.05,361.1,429.85,360.88,429.85,360.65z M434.85,360.53c-0.92-1.04-0.86-2.81,0.13-3.76
					c0.94-0.9,1.92-0.88,2.77-0.06c-0.76,0.17-1.67,0.23-2.41,0.61c-0.33,0.17-0.44,1.01-0.44,1.55c0.01,1.5,0.71,1.86,3.18,1.58
					C436.75,361.56,435.73,361.52,434.85,360.53z M439.37,361.17c-0.23-0.05-0.31-0.96-0.37-1.49c-0.06-0.47,0-0.95,0-1.42
					c0.01-2.37,0.49-2.69,2.88-1.63c-0.5,0.04-1.03-0.02-1.47,0.16c-0.34,0.13-0.56,0.56-0.84,0.85c0.27,0.25,0.5,0.62,0.82,0.71
					c0.45,0.13,0.96,0.07,1.45,0.09c0,0.17,0.01,0.34,0.01,0.52c-0.48,0.03-0.99-0.03-1.44,0.11c-0.32,0.1-0.56,0.46-0.84,0.7
					c0.27,0.29,0.5,0.74,0.84,0.85c0.45,0.15,0.98,0.04,1.47,0.04c0.01,0.2,0.02,0.39,0.03,0.59
					C441.05,361.24,440.18,361.36,439.37,361.17z M390.74,369.29c-1.19-0.09-1.12,0.74-1.11,1.51c0.01,0.87,0.04,1.74,0.07,2.61
					c0.01,0.23,0.01,0.45,0.02,0.68c0.01,0.37,0.01,0.74,0.02,1.12c0,0.5-0.11,1-0.17,1.51c-0.2-0.01-0.4-0.02-0.61-0.03
					c-0.04-0.49-0.12-0.97-0.13-1.46c0-0.44,0-0.88,0-1.32c0-0.45,0.01-0.9,0.01-1.35c0.01-0.49,0.01-0.98,0.01-1.46
					c-0.01-0.86,0.26-1.93-1.22-1.83c-0.12,0.01-0.39-0.31-0.37-0.45c0.02-0.16,0.28-0.41,0.44-0.41c0.99-0.04,1.98-0.05,2.97,0
					c0.19,0.01,0.37,0.31,0.55,0.48C391.06,369.03,390.89,369.3,390.74,369.29z M376.98,371.97c0-0.95-0.03-1.9,0.02-2.84
					c0.01-0.25,0.31-0.47,0.48-0.71c0.15,0.25,0.42,0.49,0.43,0.74c0.02,1.23-0.05,2.47-0.06,3.7c-0.01,0.61,0,1.23,0.09,1.84
					c0.13,0.98,0.86,1.12,1.68,1.09c0.87-0.03,1.31-0.49,1.32-1.33c0.03-1.66-0.01-3.32,0.04-4.98c0.01-0.36,0.27-0.7,0.41-1.06
					c0.17,0.37,0.49,0.74,0.5,1.11c0,1.79,0.01,3.6-0.17,5.38c-0.14,1.4-0.96,1.9-2.52,1.83c-1.43-0.06-2.09-0.65-2.19-2.06
					c-0.06-0.9-0.01-1.8-0.01-2.7H376.98z M374.34,371.75c0.93,0.71,1.74,1.5,1.36,2.7c-0.24,0.77-0.84,1.53-1.48,2.03
					c-0.76,0.6-1.31,0.24-1.3-0.49c0.83-0.6,1.81-0.98,1.84-1.42c0.04-0.62-0.5-1.41-1.01-1.92c-1.01-1.01-1.38-2.39-0.64-3.42
					c0.55-0.77,1.31-1.11,2.22-0.62c0.24,0.13,0.39,0.44,0.59,0.67c-0.29,0.15-0.56,0.31-0.86,0.43c-0.46,0.19-0.94,0.34-1.41,0.51
					C373.87,370.74,373.95,371.45,374.34,371.75z M375.43,333.26c-0.12,0.09-0.4,0.32-1.06,0.85c0.34-3.42,0.64-6.48,0.93-9.44
					c3.41,2.53,7.32,1.01,11.06,1.02c0.48,0,0.95-0.65,1.61-1.14c0.11,0.62,0.26,1.14,0.29,1.66c0.13,2.17,0.18,4.36,0.35,6.53
					c0.07,0.96-0.29,1.3-1.19,1.29c-0.58,0-1.17-0.01-1.75-0.01h-1.23c-2.26,0-4.52,0.01-6.77-0.05
					C377.01,333.98,376.35,333.57,375.43,333.26z M383.38,376.04c0.84-0.65,1.82-1.04,1.88-1.55c0.07-0.58-0.57-1.37-1.08-1.88
					c-1.02-1.02-1.31-2.35-0.53-3.42c0.62-0.85,1.44-1.06,2.34-0.5c0.2,0.13,0.24,0.53,0.35,0.8c-0.22,0.09-0.44,0.2-0.68,0.27
					c-0.05,0.01-0.09,0.03-0.14,0.04c-0.08,0.03-0.15,0.05-0.23,0.07c-0.39,0.11-0.78,0.22-1.17,0.33c0.29,0.58,0.45,1.36,0.92,1.69
					c0.16,0.11,0.3,0.23,0.43,0.35c0.52,0.49,0.8,1.06,0.79,1.69c0,0.25-0.05,0.51-0.13,0.77c-0.24,0.71-0.92,1.36-1.55,1.81
					C383.81,377.08,383.42,376.57,383.38,376.04z M335.85,315.19c2.66-1.46,5.17-3.21,7.77-4.81c0.27-0.17,0.62-0.21,0.93-0.31
					c-0.09,0.32-0.07,0.77-0.27,0.94c-1.05,0.86-2.13,1.7-3.26,2.46c-1.04,0.71-2.16,1.28-3.2,1.99c-0.21,0.14-0.18,0.63-0.26,0.95
					c0.33,0.03,0.74,0.2,0.98,0.06c2.53-1.5,5.01-3.11,7.56-4.57c1.22-0.7,2.57-1.15,3.83-1.77c0.92-0.45,1.79-1.01,2.71-1.48
					c0.29-0.15,0.65-0.14,0.99-0.2c0.04,0.35,0.22,0.78,0.09,1.04c-0.22,0.45-0.59,0.86-0.99,1.17c-0.92,0.74-1.91,1.39-2.85,2.11
					c-2.22,1.71-4.42,3.45-6.64,5.17c-0.33,0.26-0.75,0.41-1.05,0.69c-0.3,0.28-0.5,0.67-0.75,1.01c0.5,0.06,1.12,0.34,1.49,0.15
					c1.15-0.62,2.18-1.47,3.31-2.14c1.42-0.84,2.88-1.6,4.34-2.35c0.27-0.13,0.66-0.02,1.45-0.02c-0.75,0.81-1.27,1.26-1.64,1.81
					c-0.25,0.38-0.45,0.98-0.32,1.36c0.12,0.34,0.72,0.51,1.11,0.76c1.59-4.14,4.24-6.79,8.17-8.24c2.55-0.93,5.07-1.98,7.49-3.21
					c1.37-0.7,2.5-1.88,3.75-2.82c0.89-0.68,1.71-1.09,2.6,0.14c0.4,0.55,1.26,0.74,1.86,1.18c0.38,0.28,0.66,0.69,0.99,1.04
					c-0.36,0.23-0.69,0.57-1.07,0.65c-2.55,0.58-4.57,1.94-6.1,4.06c-0.21,0.29-0.76,0.7-0.86,0.64c-1.81-1.27-3.13,0.24-4.55,0.83
					c-2.31,0.96-4.57,2.06-6.82,3.16c-0.53,0.26-0.97,0.72-1.45,1.08c0.08,0.17,0.15,0.34,0.23,0.51c0.72-0.19,1.45-0.34,2.15-0.58
					c1.17-0.41,2.36-0.82,3.48-1.34c1.45-0.67,2.84-1.48,4.27-2.18c0.4-0.19,6.42,1.06,6.63,1.24c0.41,0.34-4.57-0.55-4.55-0.03
					c0.04,0.93-0.14,1.89-0.34,2.81c-0.51,2.32,0.48,4.33,1.26,6.37c1.08,2.87,1.46,5.81,1.21,8.85c-0.01,0.2-0.21,0.38-0.4,0.68
					c-0.53-0.58-0.99-1.08-1.57-1.72c-0.25,0.45-0.41,0.76-0.6,1.06c-0.49,0.8-1.55,0.77-2.24,0.14c-2.02-1.85-1.47-4.34-1.79-6.63
					c-0.14-1.03-0.07-2.18-0.52-3.06c-0.48-0.94-1.31-2.02-2.23-2.35c-1.86-0.66-3.82-1-5.88-0.49c-1.24,0.3-2.62,0.04-3.93,0
					c-2.41-0.08-4.55,0.53-5.76,2.8c-0.51,0.96-0.62,2.15-0.82,3.25c-0.12,0.64,0.09,1.36-0.1,1.97c-0.16,0.52-0.59,1.16-1.05,1.31
					c-0.45,0.14-1.2-0.12-1.59-0.47c-0.99-0.89-1.75-1.97-1.83-3.41c-0.07-1.05-0.47-1.61-1.66-1.12c-0.3,0.12-1.1-0.15-1.12-0.32
					c-0.09-0.59-0.16-1.56,0.16-1.76c0.63-0.4,1.59-0.66,2.27-0.48c1.03,0.28,1.69,0.04,2.3-0.57c-0.68-0.75-1.31-1.43-2.14-2.33
					c-0.52,0.21-1.32,0.53-2.27,0.91c-0.54-0.74-1.14-1.56-1.75-2.37c-0.12,0.02-0.25,0.04-0.38,0.05c1.04,2.09-0.99,4.31,0.82,6.51
					c1.2,1.46,1.64,3.44,1.8,5.41c0.14,1.68,0.86,2.16,2.49,1.87c0.14-0.03,0.3-0.09,0.42-0.04c1.83,0.8,2.84-0.09,3.54-1.69
					c0.06-0.14,0.29-0.21,0.65-0.47c0.24,0.67,0.46,1.14,0.59,1.63c0.52,1.98,0.16,2.34-1.81,2.19c-1.54-0.12-3.1-0.07-4.65,0
					c-0.8,0.03-1.39-0.09-1.65-0.95c-1.13-3.8-2.27-7.6-3.39-11.41c-0.09-0.32-0.11-0.66-0.18-0.98
					C332.6,317.52,333.13,316.69,335.85,315.19z M359.72,331.88c-0.31,0.37-0.62,0.75-1.11,1.34c-0.76-1.85-0.52-3.59-0.28-5.22
					c0.13-0.91,0.95-1.75,2.01-1.72c0.25,0.63,0.49,1.18,0.7,1.74c0.19,0.52,0.42,1.03,0.51,1.57c0.24,1.37,0.42,2.75,0.64,4.21
					h-2.27c0.07-0.59,0.13-1.19,0.2-1.79C359.99,331.97,359.85,331.93,359.72,331.88z M351.38,334.06
					c-0.91,0.03-1.82,0.02-2.73-0.01c-0.31-0.01-0.85-0.61-0.85-0.93c0-0.87,0.23-1.75,0.35-2.53c1.24,0.37,2.31,0.56,3.27,1.01
					c0.5,0.24,0.79,0.92,1.34,1.6c0.11-0.58,0.12-1.12,0.33-1.57c0.22-0.47,0.63-0.86,0.96-1.29c0.22,0.4,0.54,0.78,0.62,1.2
					c0.09,0.45,0.08,1-0.1,1.4c-0.2,0.41-0.63,0.96-1,1c-0.5,0.04-1,0.08-1.5,0.1C351.84,334.05,351.61,334.06,351.38,334.06z
					 M550.59,332.91c-0.18,1.05-0.73,1.39-1.76,1.39c-6.89-0.03-13.79-0.01-20.68-0.01v-0.02c-6.7,0-13.41,0-20.11,0
					c-1.92,0-1.84-0.05-1.32-1.97c1.33-4.94,2.68-9.87,3.7-14.88c1.28-6.25,1.84-12.62,1.44-19c-0.36-5.63-0.98-11.23-2.2-16.78
					c-2.51-11.48-7.06-22.03-13.57-31.72c-6.69-9.95-15.02-18.27-24.95-24.97c-4.76-3.21-9.72-6.06-15.03-8.18
					c-3.97-1.59-8.05-2.95-12.15-4.16c-8.76-2.6-17.75-3.55-26.85-3.21c-6.99,0.26-13.87,1.3-20.66,3.11
					c-12.74,3.4-24.15,9.37-34.35,17.7c-9.68,7.92-17.42,17.48-23.19,28.64c-3.1,6-5.49,12.25-7.26,18.79
					c-2.48,9.16-3.54,18.47-3.13,27.93c0.33,7.8,1.4,15.51,3.88,22.97c0.52,1.57,1,3.16,1.54,4.73c0.31,0.89,0.02,1.25-0.89,1.25
					c-13.83-0.04-27.66-0.08-41.49-0.08c-1.11,0-1.54-0.4-1.81-1.48c-3.18-12.61-3.8-25.42-3.36-38.35
					c0.24-7.11,1.18-14.12,2.72-21.03c1.15-5.17,2.76-10.24,4.28-15.31c2.69-8.96,6.77-17.3,11.48-25.33
					c4.99-8.5,10.84-16.35,17.61-23.52c7.61-8.07,15.93-15.25,25.26-21.23c6.13-3.93,12.49-7.41,19.17-10.32
					c6.41-2.8,12.99-5.11,19.74-6.86c9.11-2.35,18.37-3.75,27.79-4.13c8.33-0.33,16.63,0.03,24.85,1.23
					c5.86,0.86,11.68,2.24,17.41,3.78c7.76,2.08,15.21,5.07,22.41,8.65c12.32,6.12,23.45,13.98,33.41,23.5
					c8.64,8.26,16.03,17.55,22.22,27.8c4.54,7.52,8.31,15.43,11.31,23.71c2.41,6.66,4.3,13.45,5.66,20.4
					c2.55,13.01,3.16,26.14,1.8,39.31C552.9,321.16,551.57,327.01,550.59,332.91z"/>
			</g>
		</g>
	</g>
	<path class="st4" d="M333.83,255.93v77.42h172.95v-77.42H333.83z M399.85,312.81c-0.07-0.29,0.21-0.31,0.4-0.36
		c0.23,0.01,0.48,0.08,0.47,0.31c-0.01,0.16-0.21,0.4-0.37,0.45C400.08,313.28,399.91,313.02,399.85,312.81z"/>
</g>
<g>
	<g>
		<path class="st3" d="M440.22,318.38c-0.45,0.74-0.63,1.47-0.65,2.28c-0.06,2.34-0.21,4.69,0.47,6.98
			c0.33,1.11,0.73,2.19,0.53,3.39c-0.07,0.43,0.2,0.79,0.41,1.17c0.1,0.17,0.31,0.45,0.05,0.64c-0.23,0.17-0.46-0.03-0.65-0.15
			c-0.32-0.21-0.52-0.51-0.53-0.91c-0.02-1.26-0.46-2.41-0.94-3.56c-0.85-2.02-1.26-4.17-1.71-6.3c-0.12-0.59-0.15-1.25-1.1-0.8
			c0.03-0.4,0.31-0.49,0.49-0.63c0.21-0.16,0.33-0.33,0.28-0.6c-0.28-1.79,0.3-3.5,0.56-5.23c0.26-1.66,0.5-3.32,1.14-4.9
			c0.42-1.05,1.1-1.61,2.21-1.87c2.81-0.66,5.66-1.17,8.42-2.06c0.95-0.31,1.93-0.19,2.89,0.01c2.24,0.48,4.45,0.11,6.67-0.22
			c1.72-0.26,3.44-0.63,5.18-0.35c2.09,0.34,3.61,1.68,4.95,3.18c1.65,1.85,2.84,4.04,4.11,6.16c0.66,1.11,0.8,2.4,0.87,3.65
			c0.08,1.55,0.43,3.07,0.34,4.63c-0.03,0.55,0.34,0.97,0.63,1.41c-1.29,0.19-2.13-0.67-1.66-2.11c0.62-1.91,0.03-3.63-0.3-5.42
			c-0.11-0.6-0.29-1.17-0.65-1.68c-0.15-0.21-0.27-0.51-0.57-0.48c-0.31,0.03-0.38,0.34-0.44,0.59c-0.37,1.59-0.67,3.18-0.33,4.83
			c0.22,1.03,0.34,2.08,0.57,3.1c0.35,1.55,1.12,2.89,2.28,3.98c0.57,0.53,0.95,1.11,0.8,1.94c-0.07,0.39,0.13,0.72,0.31,1.04
			c0.27,0.47,0.15,0.88-0.24,1.19c-1.08,0.84-2.36,0.85-3.62,0.76c-0.48-0.04-0.59-0.53-0.25-0.91c0.79-0.87,0.65-1.76,0.16-2.69
			c-0.58-1.11-0.96-2.35-1.93-3.22c-0.45-0.41-1.02-0.99-1.5-0.91c-0.48,0.08-0.37,0.96-0.53,1.48c-0.43,1.37-0.56,2.77-0.51,4.21
			c0.03,0.73-0.26,1.44-0.17,2.19c0.04,0.28-0.2,0.38-0.46,0.44c-1.18,0.3-2.37,0.47-3.6,0.31c-0.38-0.05-0.77-0.1-0.9-0.51
			c-0.13-0.4,0.24-0.6,0.45-0.85c1.6-1.88,2.19-4.14,1.98-6.5c-0.18-2.01-1.02-2.59-3.02-2.92c-2.35-0.39-4.77-0.54-6.91-1.78
			c-0.48-0.28-0.81-0.03-0.78,0.47c0.07,0.98-0.19,1.85-0.59,2.74c-0.26,0.57-0.25,1.23-0.17,1.87c0.15,1.23,0.25,2.49,0.18,3.7
			c-0.06,1-0.03,1.82,0.49,2.7c0.33,0.56-0.11,1.18-0.77,1.3c-0.91,0.16-1.83,0.24-2.75,0.11c-0.64-0.09-0.8-0.45-0.43-0.98
			c0.18-0.26,0.39-0.5,0.6-0.73c0.33-0.35,0.38-0.75,0.19-1.17c-0.44-1.01-0.51-2.09-0.55-3.17c-0.03-0.79-0.19-1.57-0.3-2.35
			c-0.06-0.43-0.23-0.4-0.5-0.2c-0.69,0.51-1.27,1.1-1.7,1.84c-0.74,1.29-1.12,2.7-1.49,4.13c-0.07,0.28,0,0.51,0.09,0.76
			c0.33,0.91,0.18,1.17-0.78,1.32c-0.87,0.13-1.74,0.04-2.57-0.26c-0.6-0.22-0.77-0.79-0.29-1.06c1.13-0.63,1.3-1.71,1.31-2.78
			c0.01-1.3,0.35-2.46,1.03-3.5c1.52-2.33,1.86-4.92,1.86-7.62c0-0.61-0.09-0.98-0.83-0.76c-0.17,0.05-0.39,0.06-0.54-0.02
			c-0.57-0.29-1.09-0.29-1.58,0.14c-0.04,0.03-0.1,0.08-0.14,0.06c-1.3-0.4-1.31,0.8-1.79,1.42c-0.05,0.06-0.07,0.14-0.11,0.21
			c-0.11,0.17-0.15,0.46-0.39,0.44C440.16,318.94,440.47,318.56,440.22,318.38z M446.15,315.55c-0.55-0.12-1.05,0.29-1.72,0.06
			c0.72,0.7,1.19,0.12,1.71-0.06c-0.01-0.06-0.02-0.12-0.02-0.18c-0.02,0.01-0.04,0.02-0.07,0.03
			C446.07,315.45,446.11,315.5,446.15,315.55z M446.87,314.9c0.64-0.44,1.28-0.89,1.92-1.33c-0.37,0.01-0.86-0.51-1.03,0.21
			c-0.83-0.16-0.72,0.64-1.04,1.01c-0.04,0.07-0.22,0.11-0.1,0.22C446.7,315.07,446.82,315.02,446.87,314.9z M447.39,307.96
			c1.62,0.74,2.17,2.26,3.16,3.45C450.77,310.04,448.83,307.91,447.39,307.96z M444.13,314.82c-0.02-1.5-0.02-3,0.23-4.49
			C443.92,311.8,443.69,313.29,444.13,314.82z M440.24,311.53c-0.23,0.01-0.48,0.07-0.47,0.3c0.01,0.16,0.21,0.4,0.37,0.45
			c0.27,0.08,0.44-0.18,0.49-0.4C440.71,311.6,440.43,311.58,440.24,311.53z"/>
		<path class="st3" d="M447.39,307.96c1.45-0.05,3.39,2.08,3.16,3.45C449.55,310.21,449.01,308.69,447.39,307.96z"/>
		<path class="st3" d="M444.13,314.82c-0.44-1.53-0.21-3.01,0.23-4.49C444.11,311.82,444.12,313.32,444.13,314.82z"/>
		<path class="st3" d="M446.72,314.78c0.32-0.37,0.21-1.17,1.04-1.01c0.17-0.72,0.66-0.19,1.03-0.21c-0.64,0.44-1.28,0.89-1.92,1.33
			C446.82,314.86,446.77,314.82,446.72,314.78z"/>
		<path class="st3" d="M440.24,311.53c0.2,0.05,0.47,0.06,0.4,0.35c-0.05,0.22-0.23,0.48-0.49,0.4c-0.16-0.05-0.36-0.29-0.37-0.45
			C439.76,311.61,440.01,311.54,440.24,311.53z"/>
		<path class="st3" d="M446.13,315.55c-0.52,0.18-0.99,0.76-1.71,0.06c0.68,0.23,1.17-0.18,1.72-0.06L446.13,315.55z"/>
	</g>
</g>
<g>
	<g>
		<path class="st3" d="M481.13,324.47c-0.24,0.39-0.34,0.79-0.35,1.22c-0.03,1.25-0.11,2.51,0.25,3.73
			c0.18,0.59,0.39,1.17,0.28,1.81c-0.04,0.23,0.11,0.42,0.22,0.62c0.05,0.09,0.17,0.24,0.03,0.34c-0.12,0.09-0.24-0.01-0.35-0.08
			c-0.17-0.11-0.28-0.27-0.28-0.49c-0.01-0.68-0.25-1.29-0.51-1.9c-0.46-1.08-0.68-2.23-0.92-3.37c-0.07-0.31-0.08-0.67-0.59-0.43
			c0.02-0.21,0.17-0.26,0.26-0.34c0.11-0.08,0.17-0.18,0.15-0.32c-0.15-0.96,0.16-1.87,0.3-2.8c0.14-0.89,0.27-1.77,0.61-2.62
			c0.23-0.56,0.59-0.86,1.18-1c1.5-0.35,3.03-0.63,4.5-1.1c0.51-0.16,1.03-0.1,1.55,0.01c1.2,0.26,2.38,0.06,3.57-0.12
			c0.92-0.14,1.84-0.34,2.77-0.19c1.12,0.18,1.93,0.9,2.65,1.7c0.89,0.99,1.52,2.16,2.2,3.29c0.36,0.59,0.43,1.28,0.46,1.95
			c0.04,0.83,0.23,1.64,0.18,2.48c-0.02,0.29,0.18,0.52,0.34,0.76c-0.69,0.1-1.14-0.36-0.89-1.13c0.33-1.02,0.02-1.94-0.16-2.9
			c-0.06-0.32-0.15-0.63-0.35-0.9c-0.08-0.11-0.14-0.27-0.31-0.26c-0.17,0.02-0.2,0.18-0.23,0.31c-0.2,0.85-0.36,1.7-0.18,2.58
			c0.12,0.55,0.18,1.11,0.31,1.66c0.19,0.83,0.6,1.54,1.22,2.13c0.3,0.28,0.51,0.6,0.43,1.04c-0.04,0.21,0.07,0.38,0.17,0.55
			c0.15,0.25,0.08,0.47-0.13,0.63c-0.58,0.45-1.26,0.45-1.94,0.4c-0.26-0.02-0.31-0.28-0.13-0.49c0.42-0.47,0.35-0.94,0.09-1.44
			c-0.31-0.59-0.51-1.26-1.03-1.72c-0.24-0.22-0.54-0.53-0.8-0.49c-0.26,0.04-0.2,0.51-0.28,0.79c-0.23,0.73-0.3,1.48-0.27,2.25
			c0.02,0.39-0.14,0.77-0.09,1.17c0.02,0.15-0.11,0.2-0.25,0.24c-0.63,0.16-1.27,0.25-1.92,0.16c-0.2-0.03-0.41-0.05-0.48-0.27
			c-0.07-0.21,0.13-0.32,0.24-0.46c0.86-1,1.17-2.21,1.06-3.48c-0.1-1.07-0.55-1.39-1.62-1.56c-1.26-0.21-2.55-0.29-3.69-0.95
			c-0.26-0.15-0.44-0.02-0.42,0.25c0.04,0.53-0.1,0.99-0.32,1.46c-0.14,0.31-0.13,0.66-0.09,1c0.08,0.66,0.13,1.33,0.1,1.98
			c-0.03,0.54-0.01,0.97,0.26,1.44c0.18,0.3-0.06,0.63-0.41,0.7c-0.49,0.09-0.98,0.13-1.47,0.06c-0.34-0.05-0.43-0.24-0.23-0.52
			c0.1-0.14,0.21-0.27,0.32-0.39c0.18-0.19,0.2-0.4,0.1-0.62c-0.24-0.54-0.28-1.12-0.3-1.69c-0.01-0.42-0.1-0.84-0.16-1.25
			c-0.03-0.23-0.12-0.21-0.27-0.11c-0.37,0.27-0.68,0.59-0.91,0.99c-0.4,0.69-0.6,1.45-0.8,2.21c-0.04,0.15,0,0.27,0.05,0.41
			c0.18,0.49,0.1,0.63-0.42,0.71c-0.47,0.07-0.93,0.02-1.37-0.14c-0.32-0.12-0.41-0.42-0.15-0.56c0.61-0.34,0.7-0.91,0.7-1.49
			c0-0.69,0.18-1.32,0.55-1.87c0.82-1.25,1-2.63,1-4.08c0-0.33-0.05-0.53-0.44-0.41c-0.09,0.03-0.21,0.03-0.29-0.01
			c-0.3-0.15-0.58-0.16-0.85,0.07c-0.02,0.02-0.05,0.04-0.07,0.03c-0.69-0.21-0.7,0.43-0.96,0.76c-0.03,0.03-0.04,0.08-0.06,0.11
			c-0.06,0.09-0.08,0.25-0.21,0.24C481.09,324.77,481.26,324.57,481.13,324.47z M484.29,322.96c-0.3-0.06-0.56,0.15-0.92,0.03
			C483.76,323.37,484.01,323.06,484.29,322.96c-0.01-0.03-0.02-0.07-0.02-0.1c-0.01,0.01-0.02,0.01-0.04,0.02
			C484.26,322.91,484.27,322.93,484.29,322.96z M484.68,322.61c0.34-0.24,0.68-0.47,1.03-0.71c-0.2,0.01-0.46-0.27-0.55,0.11
			c-0.44-0.08-0.39,0.34-0.55,0.54c-0.02,0.04-0.12,0.06-0.05,0.12C484.59,322.7,484.66,322.68,484.68,322.61z M484.96,318.9
			c0.87,0.39,1.16,1.21,1.69,1.85C486.77,320.01,485.73,318.87,484.96,318.9z M483.22,322.57c-0.01-0.8-0.01-1.6,0.12-2.4
			C483.11,320.95,482.98,321.75,483.22,322.57z M481.13,320.81c-0.12,0-0.26,0.04-0.25,0.16c0.01,0.09,0.11,0.22,0.2,0.24
			c0.14,0.04,0.24-0.1,0.26-0.22C481.38,320.84,481.24,320.84,481.13,320.81z"/>
		<path class="st3" d="M484.96,318.9c0.78-0.03,1.81,1.11,1.69,1.85C486.12,320.1,485.83,319.29,484.96,318.9z"/>
		<path class="st3" d="M483.22,322.57c-0.24-0.82-0.11-1.61,0.12-2.4C483.21,320.96,483.21,321.77,483.22,322.57z"/>
		<path class="st3" d="M484.6,322.55c0.17-0.2,0.11-0.62,0.55-0.54c0.09-0.38,0.35-0.1,0.55-0.11c-0.34,0.24-0.68,0.47-1.03,0.71
			C484.65,322.59,484.63,322.57,484.6,322.55z"/>
		<path class="st3" d="M481.13,320.81c0.1,0.03,0.25,0.03,0.21,0.19c-0.03,0.12-0.12,0.26-0.26,0.22c-0.09-0.02-0.19-0.15-0.2-0.24
			C480.88,320.85,481.01,320.81,481.13,320.81z"/>
		<path class="st3" d="M484.29,322.96c-0.28,0.09-0.53,0.41-0.92,0.03C483.73,323.12,484,322.9,484.29,322.96L484.29,322.96z"/>
	</g>
</g>
<path class="st3" d="M403.91,321.41c-0.21-0.16-0.33-0.33-0.29-0.6c0.29-1.79-0.29-3.49-0.56-5.23c-0.25-1.66-0.5-3.31-1.14-4.9
	c-0.43-1.05-1.1-1.61-2.21-1.87c-2.81-0.66-5.66-1.18-8.42-2.06c-0.95-0.31-1.93-0.19-2.89,0.01c-2.24,0.48-4.45,0.12-6.67-0.22
	c-1.71-0.26-3.44-0.63-5.18-0.35c-2.09,0.33-3.61,1.68-4.95,3.18c-1.65,1.85-2.84,4.04-4.11,6.15c-0.66,1.11-0.8,2.4-0.86,3.66
	c-0.09,1.54-0.43,3.07-0.35,4.63c0.03,0.55-0.34,0.97-0.62,1.41c1.29,0.19,2.13-0.67,1.66-2.1c-0.63-1.92-0.03-3.64,0.3-5.42
	c0.11-0.6,0.29-1.18,0.64-1.68c0.15-0.21,0.27-0.51,0.58-0.48c0.31,0.03,0.37,0.33,0.43,0.59c0.37,1.59,0.67,3.18,0.33,4.82
	c-0.22,1.03-0.34,2.08-0.57,3.1c-0.35,1.56-1.12,2.89-2.29,3.98c-0.57,0.53-0.95,1.11-0.8,1.94c0.07,0.39-0.13,0.72-0.31,1.04
	c-0.27,0.47-0.15,0.87,0.24,1.18c1.08,0.84,2.36,0.85,3.62,0.76c0.48-0.04,0.59-0.53,0.25-0.91c-0.78-0.87-0.65-1.76-0.16-2.69
	c0.58-1.12,0.96-2.35,1.93-3.23c0.46-0.41,1.02-0.99,1.5-0.91s0.37,0.96,0.53,1.48c0.43,1.37,0.56,2.77,0.51,4.21
	c-0.03,0.73,0.26,1.44,0.16,2.19c-0.01,0.11,0.02,0.2,0.08,0.26c0.09,0.09,0.23,0.14,0.38,0.18c1.19,0.3,2.38,0.47,3.6,0.3
	c0.36-0.05,0.74-0.1,0.89-0.48c0-0.01,0.01-0.02,0.01-0.03c0.13-0.4-0.24-0.6-0.45-0.85c-1.6-1.88-2.19-4.14-1.98-6.5
	c0.18-2.01,1.02-2.59,3.02-2.92c2.35-0.39,4.77-0.54,6.91-1.78c0.47-0.28,0.81-0.04,0.77,0.47c-0.07,0.98,0.19,1.85,0.59,2.73
	c0.26,0.58,0.25,1.24,0.17,1.87c-0.15,1.23-0.25,2.49-0.17,3.7c0.06,1,0.02,1.82-0.49,2.7c-0.12,0.2-0.14,0.41-0.08,0.61
	c0.09,0.33,0.43,0.61,0.85,0.69c0.91,0.16,1.83,0.24,2.75,0.1c0.56-0.08,0.76-0.36,0.54-0.79c-0.03-0.06-0.07-0.12-0.11-0.18
	c-0.17-0.26-0.38-0.5-0.6-0.73c-0.33-0.36-0.37-0.75-0.19-1.17c0.44-1.02,0.51-2.09,0.55-3.17c0.03-0.79,0.19-1.56,0.31-2.35
	c0.06-0.42,0.22-0.4,0.5-0.19c0.68,0.5,1.27,1.1,1.7,1.84c0.74,1.29,1.12,2.71,1.49,4.13c0.07,0.28,0,0.5-0.09,0.76
	c-0.21,0.55-0.23,0.86,0,1.06c0.15,0.13,0.4,0.2,0.78,0.26c0.86,0.13,1.71,0.03,2.53-0.26c0.01,0,0.02-0.01,0.03-0.01
	c0.6-0.21,0.78-0.78,0.29-1.05c-1.13-0.63-1.3-1.71-1.3-2.78c-0.01-1.29-0.35-2.46-1.03-3.5c-1.53-2.33-1.87-4.92-1.87-7.62
	c0-0.61,0.1-0.98,0.83-0.76c0.17,0.05,0.4,0.05,0.54-0.02c0.57-0.29,1.09-0.29,1.58,0.14c0.04,0.03,0.11,0.07,0.14,0.06
	c1.3-0.4,1.32,0.8,1.79,1.43c0.05,0.06,0.07,0.14,0.11,0.2c0.11,0.17,0.15,0.46,0.4,0.45c0.35-0.03,0.03-0.41,0.28-0.59
	c0.46,0.73,0.64,1.47,0.66,2.28c0.06,2.34,0.21,4.69-0.47,6.98c-0.33,1.11-0.73,2.19-0.53,3.39c0.07,0.43-0.2,0.79-0.41,1.17
	c-0.04,0.06-0.09,0.14-0.12,0.23c-0.07,0.14-0.09,0.29,0.07,0.41c0.23,0.17,0.46-0.03,0.65-0.15c0.11-0.07,0.21-0.16,0.29-0.26
	c0.15-0.18,0.23-0.39,0.24-0.66c0.02-1.26,0.46-2.41,0.94-3.55c0.86-2.02,1.27-4.17,1.72-6.3c0.12-0.59,0.15-1.25,1.1-0.8
	C404.37,321.64,404.09,321.55,403.91,321.41z M389.94,312.33c-0.22-1.37,1.71-3.51,3.16-3.46
	C391.48,309.61,390.93,311.13,389.94,312.33z M393.86,315.92c-0.08,0.07-0.19,0.02-0.24-0.1c-0.64-0.45-1.28-0.89-1.92-1.34
	c0.37,0.02,0.86-0.51,1.03,0.21c0.83-0.16,0.72,0.64,1.04,1.01C393.81,315.77,393.99,315.8,393.86,315.92z M394.36,316.47
	c-0.01,0-0.01,0-0.02,0c0.01-0.01,0.02-0.02,0.02-0.03c0.01-0.05,0.02-0.1,0.02-0.15c0.03,0.01,0.05,0.02,0.07,0.03
	c-0.03,0.04-0.06,0.08-0.09,0.12V316.47c0.54-0.1,1.04,0.29,1.71,0.06C395.34,317.24,394.87,316.65,394.36,316.47z M396.35,315.74
	c0.02-1.5,0.03-3-0.23-4.49C396.56,312.72,396.79,314.21,396.35,315.74z M400.35,313.21c-0.27,0.07-0.44-0.19-0.5-0.4
	c-0.07-0.29,0.21-0.31,0.4-0.36c0.23,0.01,0.48,0.08,0.47,0.31C400.71,312.92,400.51,313.16,400.35,313.21z"/>
<path class="st3" d="M359.36,326.58c-0.12,0.01-0.14-0.13-0.19-0.21c-0.02-0.03-0.03-0.07-0.05-0.1c-0.23-0.3-0.24-0.88-0.86-0.68
	c-0.02,0.01-0.05-0.02-0.07-0.03c-0.24-0.21-0.49-0.2-0.76-0.07c-0.07,0.04-0.18,0.03-0.26,0.01c-0.35-0.11-0.4,0.07-0.4,0.37
	c0,1.29,0.16,2.54,0.9,3.66c0.33,0.5,0.49,1.06,0.49,1.68c0,0.51,0.08,1.03,0.63,1.33c0.23,0.13,0.15,0.4-0.14,0.51
	c-0.4,0.14-0.81,0.19-1.23,0.13c-0.46-0.07-0.54-0.2-0.38-0.63c0.04-0.12,0.08-0.23,0.04-0.36c-0.18-0.68-0.36-1.36-0.72-1.98
	c-0.21-0.36-0.49-0.64-0.82-0.89c-0.13-0.1-0.21-0.11-0.24,0.09c-0.06,0.37-0.13,0.75-0.15,1.13c-0.02,0.52-0.05,1.04-0.27,1.52
	c-0.09,0.2-0.07,0.39,0.09,0.56c0.1,0.11,0.2,0.23,0.29,0.35c0.17,0.25,0.1,0.43-0.21,0.47c-0.44,0.06-0.88,0.03-1.32-0.05
	c-0.32-0.06-0.53-0.35-0.37-0.63c0.25-0.42,0.26-0.81,0.23-1.3c-0.04-0.58,0.01-1.19,0.09-1.78c0.04-0.31,0.04-0.62-0.08-0.9
	c-0.19-0.42-0.32-0.84-0.28-1.31c0.02-0.24-0.14-0.36-0.37-0.23c-1.03,0.6-2.19,0.67-3.32,0.86c-0.96,0.16-1.37,0.44-1.45,1.4
	c-0.1,1.13,0.18,2.22,0.95,3.12c0.1,0.12,0.28,0.22,0.22,0.41c-0.06,0.2-0.25,0.22-0.43,0.25c-0.59,0.08-1.16,0-1.73-0.15
	c-0.12-0.03-0.24-0.08-0.22-0.21c0.04-0.36-0.09-0.7-0.08-1.05c0.03-0.69-0.04-1.37-0.24-2.02c-0.08-0.25-0.02-0.67-0.26-0.71
	c-0.23-0.04-0.5,0.24-0.72,0.44c-0.47,0.42-0.65,1.02-0.93,1.55c-0.24,0.45-0.3,0.88,0.08,1.29c0.16,0.18,0.11,0.42-0.12,0.44
	c-0.61,0.04-1.22,0.04-1.74-0.36c-0.19-0.15-0.25-0.34-0.12-0.57c0.09-0.15,0.18-0.31,0.15-0.5c-0.07-0.4,0.11-0.68,0.39-0.93
	c0.56-0.52,0.93-1.16,1.1-1.91c0.11-0.49,0.17-1,0.28-1.49c0.17-0.79,0.02-1.55-0.16-2.32c-0.03-0.12-0.06-0.27-0.21-0.28
	c-0.15-0.01-0.2,0.13-0.27,0.23c-0.17,0.24-0.26,0.52-0.31,0.81c-0.16,0.86-0.45,1.69-0.15,2.6c0.23,0.69-0.18,1.1-0.8,1.01
	c0.14-0.21,0.32-0.42,0.3-0.68c-0.04-0.75,0.12-1.48,0.16-2.23c0.03-0.6,0.1-1.22,0.42-1.76c0.61-1.02,1.18-2.07,1.98-2.96
	c0.64-0.72,1.37-1.37,2.38-1.53c0.84-0.13,1.67,0.04,2.49,0.17c1.06,0.16,2.12,0.34,3.2,0.11c0.46-0.1,0.93-0.15,1.39-0.01
	c1.33,0.43,2.69,0.67,4.04,0.99c0.54,0.13,0.86,0.39,1.06,0.9c0.31,0.76,0.43,1.56,0.55,2.35c0.13,0.83,0.41,1.65,0.27,2.51
	c-0.02,0.13,0.04,0.21,0.14,0.29c0.09,0.07,0.22,0.11,0.24,0.3c-0.46-0.22-0.47,0.1-0.53,0.38c-0.22,1.03-0.41,2.06-0.82,3.03
	c-0.23,0.55-0.44,1.1-0.45,1.71c0,0.2-0.1,0.34-0.26,0.44c-0.09,0.06-0.2,0.15-0.31,0.07c-0.12-0.09-0.02-0.22,0.02-0.31
	c0.1-0.18,0.23-0.35,0.2-0.56c-0.1-0.58,0.1-1.1,0.25-1.63c0.33-1.1,0.25-2.23,0.22-3.35c-0.01-0.39-0.1-0.74-0.31-1.1
	C359.38,326.38,359.53,326.57,359.36,326.58z M356.71,324.87c-0.01,0-0.02-0.01-0.03-0.01c0,0.03-0.01,0.06-0.01,0.09
	c0.25,0.09,0.47,0.37,0.82,0.03c-0.32,0.11-0.56-0.08-0.83-0.03C356.67,324.92,356.69,324.89,356.71,324.87z M356.43,324.67
	c0.06-0.05-0.03-0.07-0.05-0.1c-0.15-0.18-0.1-0.56-0.5-0.48c-0.08-0.34-0.32-0.09-0.49-0.1c0.31,0.21,0.61,0.43,0.92,0.64
	C356.33,324.68,356.39,324.71,356.43,324.67z M354.54,322.95c0.48-0.57,0.74-1.3,1.52-1.66
	C355.36,321.27,354.43,322.29,354.54,322.95z M357.51,322.43c0.12,0.72,0.12,1.44,0.11,2.16
	C357.83,323.85,357.72,323.14,357.51,322.43z M359.3,323.18c0.03,0.11,0.11,0.23,0.24,0.19c0.08-0.02,0.17-0.14,0.18-0.22
	c0.01-0.11-0.11-0.14-0.22-0.15C359.4,323.03,359.27,323.04,359.3,323.18z"/>
</svg>
